<svg width="46" height="46" viewBox="0 0 46 46" fill="none" xmlns="http://www.w3.org/2000/svg">
<circle cx="23" cy="23" r="20" fill="#D5D8E3"/>
<path d="M30.2783 26.2632C31.0242 25.0151 31.519 23.4365 31.615 21.8745C31.6759 20.872 31.4525 19.8196 30.9688 18.83C30.21 17.2754 28.9065 16.402 27.6473 15.5583C26.7075 14.9287 25.8194 14.3342 25.1917 13.4849L25.079 13.3335C24.7079 12.835 24.2888 12.27 24.2224 11.7955C24.1559 11.3154 23.7202 10.9739 23.2438 11.0016C22.7601 11.0348 22.3853 11.4355 22.3853 11.921V28.3717C21.6117 27.9028 20.659 27.6147 19.6158 27.6147C17.0716 27.6147 15 29.2709 15 31.3074C15 33.3439 17.0716 35 19.6158 35C22.16 35 24.2316 33.3439 24.2316 31.3074V20.547C25.6182 21.0769 27.8873 22.4266 28.5113 25.5782C28.395 25.75 28.2843 25.9346 28.155 26.0823C27.8171 26.4645 27.8541 27.0479 28.2381 27.3839C28.6184 27.7237 29.2019 27.683 29.5397 27.3009C29.7872 27.0202 30.0069 26.6916 30.2173 26.3482C30.2395 26.3223 30.2599 26.2946 30.2783 26.2632Z" fill="#1C3048"/>
</svg>
