<svg width="45" height="58" viewBox="0 0 45 58" fill="none" xmlns="http://www.w3.org/2000/svg">
<g clip-path="url(#clip0_4400_1563)">
<mask id="mask0_4400_1563" style="mask-type:luminance" maskUnits="userSpaceOnUse" x="5" y="0" width="35" height="33">
<path d="M40 0H5V33H40V0Z" fill="white"/>
</mask>
<g mask="url(#mask0_4400_1563)">
<path d="M14.1138 26.229C11.7789 26.229 9.70217 24.6969 8.94806 22.415L8.89738 22.243C8.7193 21.6392 8.64532 21.1308 8.64532 20.6225V10.4297L5.10697 22.5365C4.65217 24.3171 5.68916 26.1637 7.42889 26.6552L29.9796 32.8458C30.2611 32.9202 30.5426 32.9561 30.82 32.9561C32.272 32.9561 33.5994 31.9682 33.9714 30.5112L35.2851 26.2283H14.1138V26.229Z" fill="#A5AAB5"/>
</g>
<path d="M18.1246 10.5315C19.7335 10.5315 21.0411 9.19044 21.0411 7.54114C21.0411 5.89185 19.7335 4.55078 18.1246 4.55078C16.5164 4.55078 15.2075 5.89185 15.2075 7.54114C15.2075 9.19044 16.5157 10.5315 18.1246 10.5315Z" fill="#A5AAB5"/>
<path d="M36.354 0.0664062H14.4787C12.4691 0.0664062 10.8328 1.74379 10.8328 3.80383V20.2484C10.8328 22.3084 12.4691 23.9858 14.4787 23.9858H36.354C38.3636 23.9858 39.9999 22.3084 39.9999 20.2484V3.80383C39.9999 1.74379 38.3636 0.0664062 36.354 0.0664062ZM14.4787 3.05607H36.354C36.7567 3.05607 37.0828 3.39098 37.0828 3.80383V14.4165L32.4759 8.90619C31.9869 8.31851 31.28 8.00466 30.5204 7.98711C29.765 7.99132 29.0561 8.33536 28.5718 8.93007L23.1554 15.5947L21.391 13.7902C20.3937 12.7679 18.7704 12.7679 17.7745 13.7902L13.7492 17.9152V3.80383C13.7492 3.39098 14.0759 3.05607 14.4787 3.05607Z" fill="#A5AAB5"/>
</g>
<path d="M8.03267 46.2727V55H6.62642L2.5142 49.0554H2.44176V55H0.860795V46.2727H2.27557L6.38352 52.2216H6.46023V46.2727H8.03267ZM12.5423 55.1278C11.9031 55.1278 11.3491 54.9872 10.8803 54.706C10.4116 54.4247 10.0479 54.0312 9.78942 53.5256C9.53374 53.0199 9.40589 52.429 9.40589 51.7528C9.40589 51.0767 9.53374 50.4844 9.78942 49.9759C10.0479 49.4673 10.4116 49.0724 10.8803 48.7912C11.3491 48.5099 11.9031 48.3693 12.5423 48.3693C13.1815 48.3693 13.7354 48.5099 14.2042 48.7912C14.6729 49.0724 15.0352 49.4673 15.2908 49.9759C15.5494 50.4844 15.6786 51.0767 15.6786 51.7528C15.6786 52.429 15.5494 53.0199 15.2908 53.5256C15.0352 54.0312 14.6729 54.4247 14.2042 54.706C13.7354 54.9872 13.1815 55.1278 12.5423 55.1278ZM12.5508 53.892C12.8974 53.892 13.1871 53.7969 13.4201 53.6065C13.6531 53.4134 13.8263 53.1548 13.94 52.831C14.0565 52.5071 14.1147 52.1463 14.1147 51.7486C14.1147 51.348 14.0565 50.9858 13.94 50.6619C13.8263 50.3352 13.6531 50.0753 13.4201 49.8821C13.1871 49.6889 12.8974 49.5923 12.5508 49.5923C12.1957 49.5923 11.9002 49.6889 11.6644 49.8821C11.4315 50.0753 11.2567 50.3352 11.1403 50.6619C11.0266 50.9858 10.9698 51.348 10.9698 51.7486C10.9698 52.1463 11.0266 52.5071 11.1403 52.831C11.2567 53.1548 11.4315 53.4134 11.6644 53.6065C11.9002 53.7969 12.1957 53.892 12.5508 53.892ZM21.5071 46.2727V55H19.9645V46.2727H21.5071ZM25.9485 55.1278C25.3093 55.1278 24.7553 54.9872 24.2866 54.706C23.8178 54.4247 23.4542 54.0312 23.1957 53.5256C22.94 53.0199 22.8121 52.429 22.8121 51.7528C22.8121 51.0767 22.94 50.4844 23.1957 49.9759C23.4542 49.4673 23.8178 49.0724 24.2866 48.7912C24.7553 48.5099 25.3093 48.3693 25.9485 48.3693C26.5877 48.3693 27.1417 48.5099 27.6104 48.7912C28.0792 49.0724 28.4414 49.4673 28.6971 49.9759C28.9556 50.4844 29.0849 51.0767 29.0849 51.7528C29.0849 52.429 28.9556 53.0199 28.6971 53.5256C28.4414 54.0312 28.0792 54.4247 27.6104 54.706C27.1417 54.9872 26.5877 55.1278 25.9485 55.1278ZM25.957 53.892C26.3036 53.892 26.5934 53.7969 26.8263 53.6065C27.0593 53.4134 27.2326 53.1548 27.3462 52.831C27.4627 52.5071 27.521 52.1463 27.521 51.7486C27.521 51.348 27.4627 50.9858 27.3462 50.6619C27.2326 50.3352 27.0593 50.0753 26.8263 49.8821C26.5934 49.6889 26.3036 49.5923 25.957 49.5923C25.6019 49.5923 25.3065 49.6889 25.0707 49.8821C24.8377 50.0753 24.663 50.3352 24.5465 50.6619C24.4329 50.9858 24.3761 51.348 24.3761 51.7486C24.3761 52.1463 24.4329 52.5071 24.5465 52.831C24.663 53.1548 24.8377 53.4134 25.0707 53.6065C25.3065 53.7969 25.6019 53.892 25.957 53.892ZM33.2408 57.5909C32.6868 57.5909 32.2109 57.5156 31.8132 57.3651C31.4155 57.2173 31.0959 57.0185 30.8544 56.7685C30.6129 56.5185 30.4453 56.2415 30.3516 55.9375L31.7408 55.6009C31.8033 55.7287 31.8942 55.8551 32.0135 55.9801C32.1328 56.108 32.2933 56.2131 32.495 56.2955C32.6996 56.3807 32.9567 56.4233 33.2663 56.4233C33.7038 56.4233 34.0661 56.3168 34.353 56.1037C34.6399 55.8935 34.7834 55.5469 34.7834 55.0639V53.8239H34.7067C34.6271 53.983 34.5107 54.1463 34.3572 54.3139C34.2067 54.4815 34.0064 54.6222 33.7564 54.7358C33.5092 54.8494 33.1982 54.9062 32.8232 54.9062C32.3203 54.9062 31.8643 54.7884 31.4553 54.5526C31.049 54.3139 30.7251 53.9588 30.4837 53.4872C30.245 53.0128 30.1257 52.419 30.1257 51.706C30.1257 50.9872 30.245 50.3807 30.4837 49.8864C30.7251 49.3892 31.0504 49.0128 31.4595 48.7571C31.8686 48.4986 32.3246 48.3693 32.8274 48.3693C33.2109 48.3693 33.5263 48.4347 33.7734 48.5653C34.0234 48.6932 34.2223 48.848 34.37 49.0298C34.5178 49.2088 34.63 49.3778 34.7067 49.5369H34.7919V48.4545H36.3132V55.1065C36.3132 55.6662 36.1797 56.1293 35.9126 56.4957C35.6456 56.8622 35.2805 57.1364 34.8175 57.3182C34.3544 57.5 33.8288 57.5909 33.2408 57.5909ZM33.2536 53.696C33.5803 53.696 33.8587 53.6165 34.0888 53.4574C34.3189 53.2983 34.4936 53.0696 34.6129 52.7713C34.7322 52.473 34.7919 52.1151 34.7919 51.6974C34.7919 51.2855 34.7322 50.9247 34.6129 50.6151C34.4964 50.3054 34.3232 50.0653 34.093 49.8949C33.8658 49.7216 33.5859 49.6349 33.2536 49.6349C32.9098 49.6349 32.6229 49.7244 32.3928 49.9034C32.1626 50.0824 31.9893 50.3281 31.8729 50.6406C31.7564 50.9503 31.6982 51.3026 31.6982 51.6974C31.6982 52.098 31.7564 52.4489 31.8729 52.75C31.9922 53.0483 32.1669 53.2812 32.397 53.4489C32.63 53.6136 32.9155 53.696 33.2536 53.696ZM40.7493 55.1278C40.1101 55.1278 39.5561 54.9872 39.0874 54.706C38.6186 54.4247 38.255 54.0312 37.9964 53.5256C37.7408 53.0199 37.6129 52.429 37.6129 51.7528C37.6129 51.0767 37.7408 50.4844 37.9964 49.9759C38.255 49.4673 38.6186 49.0724 39.0874 48.7912C39.5561 48.5099 40.1101 48.3693 40.7493 48.3693C41.3885 48.3693 41.9425 48.5099 42.4112 48.7912C42.88 49.0724 43.2422 49.4673 43.4979 49.9759C43.7564 50.4844 43.8857 51.0767 43.8857 51.7528C43.8857 52.429 43.7564 53.0199 43.4979 53.5256C43.2422 54.0312 42.88 54.4247 42.4112 54.706C41.9425 54.9872 41.3885 55.1278 40.7493 55.1278ZM40.7578 53.892C41.1044 53.892 41.3942 53.7969 41.6271 53.6065C41.8601 53.4134 42.0334 53.1548 42.147 52.831C42.2635 52.5071 42.3217 52.1463 42.3217 51.7486C42.3217 51.348 42.2635 50.9858 42.147 50.6619C42.0334 50.3352 41.8601 50.0753 41.6271 49.8821C41.3942 49.6889 41.1044 49.5923 40.7578 49.5923C40.4027 49.5923 40.1072 49.6889 39.8714 49.8821C39.6385 50.0753 39.4638 50.3352 39.3473 50.6619C39.2337 50.9858 39.1768 51.348 39.1768 51.7486C39.1768 52.1463 39.2337 52.5071 39.3473 52.831C39.4638 53.1548 39.6385 53.4134 39.8714 53.6065C40.1072 53.7969 40.4027 53.892 40.7578 53.892Z" fill="#A5AAB5"/>
<defs>
<clipPath id="clip0_4400_1563">
<rect width="35" height="33" fill="white" transform="translate(5)"/>
</clipPath>
</defs>
</svg>
