<svg width="375" height="375" viewBox="0 0 375 375" fill="none" xmlns="http://www.w3.org/2000/svg">
<g opacity="0.07" clip-path="url(#clip0_3072_2407)">
<rect width="375" height="375" fill="white"/>
<path d="M134.683 30.6436H30.5703V135.005H134.683V30.6436ZM120.231 120.518H45.0472V45.155H120.231V120.518Z" fill="black"/>
<path d="M105.223 60.1748H60.0308V105.475H105.223V60.1748Z" fill="black"/>
<path d="M240.316 30.6436V135.005H344.429V30.6436H240.316ZM329.953 120.518H254.769V45.155H329.953V120.518Z" fill="black"/>
<path d="M314.969 60.1748H269.777V105.475H314.969V60.1748Z" fill="black"/>
<path d="M30.5703 343.898H134.683V239.536H30.5703V343.898ZM45.0472 254.048H120.231V329.41H45.0472V254.048Z" fill="black"/>
<path d="M105.223 269.066H60.0308V314.366H105.223V269.066Z" fill="black"/>
<path d="M60.0308 149.879H30.5703V164.874H60.0308V149.879Z" fill="black"/>
<path d="M119.965 165.576H134.973V179.942H105.223V181.974V194.913V209.86V224.855H119.965H150.125V209.86H119.965V194.913H150.125V209.86H164.868V194.913V181.974V179.942H149.715V150.532H134.973V150.605H119.965V165.576Z" fill="black"/>
<path d="M208.709 194.913V209.908H193.966V224.855H179.248V239.85H164.868V254.749H150.125V224.855H164.868V209.86H179.61V194.913H208.709Z" fill="black"/>
<path d="M239.134 269.067V254.749V254.096V239.754H224.392V254.096H179.61V269.067H194.159V284.957H179.61V269.067H164.868V284.643H149.763V299.638H164.868V314.367H149.763V343.898H164.868H178.862H179.61V314.367H194.159V299.348H208.877V269.067H239.134Z" fill="black"/>
<path d="M223.62 314.367V329.362H268.498V344.333H313.787V329.362H283.144V314.367V299.348H268.402V314.367H223.62Z" fill="black"/>
<path d="M223.62 329.361H194.328V344.356H223.62V329.361Z" fill="black"/>
<path d="M239.424 179.942H208.708V194.938H239.424V179.942Z" fill="black"/>
<path d="M327.419 194.938V209.739H342.089V224.734H327.371V209.739H312.629V224.734H297.886V209.739H283.265V179.942L312.46 179.918V165.358H297.356V150.363H327.202V165.358V179.942H342.548V194.938H327.419Z" fill="black"/>
<path d="M193.966 224.855V239.85H208.709V224.903H223.451V209.908H208.709V224.855H193.966Z" fill="black"/>
<path d="M223.62 299.348H208.877V314.367H223.62V299.348Z" fill="black"/>
<path d="M312.629 299.348H297.886V314.367H312.629V299.348Z" fill="black"/>
<path d="M253.901 209.908H239.158V224.903H253.901V209.908Z" fill="black"/>
<path d="M239.424 179.942H254.142V165.358H283.892V150.387H239.424V165.358V179.942Z" fill="black"/>
<path d="M45.3126 179.869H30.5703V224.855H45.3126V179.869Z" fill="black"/>
<path d="M164.361 150.605H164.868V179.942H179.61V164.487H194.328V150.605H216.261V150.532H224.464V90.4791H209.746V106.055H194.328V120.808H209.746V135.827H194.328V120.808H179.61V135.827H164.434V90.721H179.176V30.6436H164.434V45.6629H149.715V75.7016H164.434V90.4791H149.715V150.532H164.361V150.605Z" fill="black"/>
<path d="M327.371 254.579V270.252H312.629V254.579H297.886V224.734H283.265V209.715H268.522V224.879H253.877V269.067H239.11V284.062H252.477V299.347H268.402V284.062H283.144V269.042V269.067H297.886V284.062H312.629V299.347H327.371V329.192H342.113V254.579H327.371ZM283.144 254.072H268.619V239.657H283.144V254.072Z" fill="black"/>
<path d="M327.371 224.734H312.629V254.58H327.371V224.734Z" fill="black"/>
<path d="M297.886 284.038H283.144V299.323H297.886V284.038Z" fill="black"/>
<path d="M224.368 45.421V30.6436H209.746H198.478H194.328V60.9483H209.746V45.421H224.368Z" fill="black"/>
<path d="M209.746 75.7012H194.328V90.4787H209.746V75.7012Z" fill="black"/>
<path d="M225.164 60.9482H209.746V75.7257H225.164V60.9482Z" fill="black"/>
<path d="M89.5155 209.86H74.7732V224.856H89.5155V209.86Z" fill="black"/>
<path d="M89.5154 195.59V150.604H74.7731V164.874H60.0308V209.86H74.7731V195.59H89.5154Z" fill="black"/>
<path d="M5.83902 73.8633C2.60584 73.8633 0 71.2512 0 68.0103V5.85295C0 2.61206 2.60584 0 5.83902 0H67.8725C71.0816 0 73.7116 2.61206 73.7116 5.85295C73.7116 9.09384 71.1057 11.7059 67.8725 11.7059H11.6539V68.0345C11.6539 71.2512 9.04806 73.8633 5.83902 73.8633Z" fill="black"/>
<path d="M369.161 73.8633C365.952 73.8633 363.322 71.2512 363.322 68.0103V11.6817H307.127C303.918 11.6817 301.288 9.06965 301.288 5.82876C301.288 2.58787 303.918 0 307.127 0H369.161C372.37 0 375 2.61206 375 5.85295V68.0345C375 71.2512 372.394 73.8633 369.161 73.8633Z" fill="black"/>
<path d="M67.8484 375H5.83902C2.62997 375 0 372.388 0 369.147V306.965C0 303.749 2.60584 301.112 5.83902 301.112C9.07219 301.112 11.678 303.724 11.678 306.965V363.294H67.8725C71.0816 363.294 73.7116 365.906 73.7116 369.147C73.6874 372.388 71.0816 375 67.8484 375Z" fill="black"/>
<path d="M369.161 375H307.127C303.918 375 301.288 372.388 301.288 369.147C301.288 365.93 303.894 363.294 307.127 363.294H363.322V306.965C363.322 303.749 365.928 301.112 369.161 301.112C372.37 301.112 375 303.724 375 306.965V369.147C375 372.388 372.394 375 369.161 375Z" fill="black"/>
</g>
<defs>
<clipPath id="clip0_3072_2407">
<rect width="375" height="375" fill="white"/>
</clipPath>
</defs>
</svg>
