<svg width="38" height="27" viewBox="0 0 38 27" fill="none" xmlns="http://www.w3.org/2000/svg">
<g clip-path="url(#clip0_4563_1485)">
<path d="M36.7331 0H1.26691C0.567031 0.000719118 0.000742187 0.549406 0 1.22753V15.9551C0.000742187 16.6325 0.567031 17.1819 1.26691 17.1826H36.7338C37.433 17.1819 37.9993 16.6325 38.0007 15.9551V1.22753C37.9993 0.549406 37.433 0.000719118 36.7331 0ZM1.26691 15.9551V1.22753H36.7338L36.7346 15.9551H1.26691Z" fill="white"/>
<path d="M6.14766 5.70322C6.02891 5.58816 5.86785 5.52344 5.70012 5.52344C5.53164 5.52344 5.37133 5.58816 5.25184 5.70322L2.71875 8.15757C2.6 8.27262 2.5332 8.42867 2.5332 8.59119C2.5332 8.75443 2.6 8.90976 2.71875 9.02554L5.25184 11.4799C5.50047 11.7122 5.89531 11.7093 6.13949 11.472C6.38367 11.2354 6.38738 10.8528 6.14691 10.6119L4.06137 8.59119L6.14691 6.57047C6.26566 6.45541 6.33246 6.29937 6.33246 6.13613C6.3332 5.97432 6.26641 5.81828 6.14766 5.70322Z" fill="white"/>
<path d="M32.7468 5.7035C32.4982 5.47122 32.1033 5.4741 31.8592 5.71069C31.615 5.94728 31.6113 6.33057 31.8517 6.57076L33.9373 8.59148L31.8517 10.6122C31.687 10.7668 31.6209 10.9948 31.6788 11.2091C31.7367 11.4234 31.9096 11.5909 32.1308 11.647C32.352 11.7031 32.588 11.6391 32.7468 11.4795L35.2799 9.0251C35.3987 8.91005 35.4655 8.754 35.4655 8.59076C35.4655 8.42824 35.3987 8.27219 35.2799 8.15713L32.7468 5.7035Z" fill="white"/>
<path d="M19.0004 2.45508H8.86652C8.16738 2.4558 7.60109 3.00448 7.59961 3.68261V13.5014C7.60035 14.1789 8.16664 14.7275 8.86652 14.729H19.0004C19.3611 14.7275 19.7039 14.5765 19.9429 14.3141C19.9511 14.3047 19.9593 14.2954 19.9667 14.286C20.1596 14.0674 20.2658 13.7898 20.2673 13.5022V3.68261C20.2665 3.0052 19.6995 2.4558 19.0004 2.45508ZM15.5766 13.5007L15.0014 12.4789L16.4673 9.87422L18.5068 13.5007H15.5766ZM19.0004 3.68261L19.0011 11.8151L17.5791 9.2867C17.3571 8.89262 16.9304 8.6474 16.4665 8.6474C16.0027 8.6474 15.5766 8.89262 15.3547 9.2867L14.2793 11.1974L12.5114 8.05629C12.2895 7.66221 11.8635 7.41771 11.4004 7.41771H11.3996C10.9357 7.41771 10.5097 7.66365 10.2886 8.05773L8.86652 10.584V3.68261H19.0004ZM8.86652 13.1476L11.4004 8.64525L14.1331 13.5007H8.86652V13.1476Z" fill="white"/>
<path d="M30.4001 3.06836H22.167C21.8167 3.06836 21.5332 3.34306 21.5332 3.68177C21.5332 4.02119 21.8167 4.29589 22.167 4.29589H30.4001C30.7497 4.29589 31.0332 4.02119 31.0332 3.68177C31.0332 3.34306 30.7497 3.06836 30.4001 3.06836Z" fill="white"/>
<path d="M29.1339 5.52344H22.167C21.8167 5.52344 21.5332 5.79814 21.5332 6.13684C21.5332 6.47627 21.8167 6.75097 22.167 6.75097H29.1339C29.4835 6.75097 29.767 6.47627 29.767 6.13684C29.767 5.79814 29.4835 5.52344 29.1339 5.52344Z" fill="white"/>
<path d="M27.2339 7.97656H22.167C21.8167 7.97656 21.5332 8.25127 21.5332 8.58997C21.5332 8.92867 21.8167 9.2041 22.167 9.2041H27.2339C27.5835 9.2041 27.867 8.92939 27.867 8.58997C27.867 8.25127 27.5835 7.97656 27.2339 7.97656Z" fill="white"/>
<path d="M25.3332 10.4316H22.167C21.8167 10.4316 21.5332 10.7063 21.5332 11.0458C21.5332 11.3845 21.8167 11.6592 22.167 11.6592H25.3332C25.6828 11.6592 25.967 11.3845 25.967 11.0458C25.967 10.7063 25.6835 10.4316 25.3332 10.4316Z" fill="white"/>
<path d="M23.4339 12.8867H22.167C21.8167 12.8867 21.5332 13.1614 21.5332 13.5008C21.5332 13.8396 21.8167 14.1143 22.167 14.1143H23.4339C23.7835 14.1143 24.067 13.8396 24.067 13.5008C24.0678 13.1614 23.7843 12.8867 23.4339 12.8867Z" fill="white"/>
<path d="M14.566 7.97681C15.6155 7.97681 16.466 7.1527 16.466 6.13586C16.466 5.11903 15.6155 4.29492 14.566 4.29492C13.5166 4.29492 12.666 5.11903 12.666 6.13586C12.6668 7.15198 13.5166 7.97609 14.566 7.97681ZM14.566 5.52246C14.9156 5.52246 15.1998 5.79716 15.1998 6.13586C15.1998 6.47529 14.9163 6.74999 14.566 6.74999C14.2164 6.74999 13.9329 6.47529 13.9329 6.13586C13.9329 5.79716 14.2157 5.52246 14.566 5.52246Z" fill="white"/>
<path d="M9.49922 22.7042C9.49922 21.6874 8.64867 20.8633 7.59922 20.8633C6.54977 20.8633 5.69922 21.6874 5.69922 22.7042C5.69922 23.7211 6.54977 24.5452 7.59922 24.5452C8.64793 24.5444 9.49773 23.7211 9.49922 22.7042ZM6.96613 22.7042C6.96613 22.3655 7.24965 22.0901 7.59922 22.0901C7.94879 22.0901 8.23305 22.3648 8.23305 22.7042C8.23305 23.0429 7.94953 23.3176 7.59922 23.3176C7.24965 23.3176 6.96613 23.0429 6.96613 22.7042Z" fill="white"/>
<path d="M17.1008 22.7042C17.1008 21.6874 16.2502 20.8633 15.2008 20.8633C14.1513 20.8633 13.3008 21.6874 13.3008 22.7042C13.3008 23.7211 14.1513 24.5452 15.2008 24.5452C16.2495 24.5444 17.0993 23.7211 17.1008 22.7042ZM14.5677 22.7042C14.5677 22.3655 14.8512 22.0901 15.2015 22.0901C15.5511 22.0901 15.8346 22.3648 15.8346 22.7042C15.8346 23.0429 15.5511 23.3176 15.2015 23.3176C14.8512 23.3176 14.5677 23.0429 14.5677 22.7042Z" fill="white"/>
<path d="M24.7004 22.7042C24.7004 21.6874 23.8498 20.8633 22.8004 20.8633C21.7509 20.8633 20.9004 21.6874 20.9004 22.7042C20.9004 23.7211 21.7509 24.5452 22.8004 24.5452C23.8491 24.5444 24.6996 23.7211 24.7004 22.7042ZM22.8004 23.3183C22.4508 23.3183 22.1673 23.0436 22.1673 22.7049C22.1673 22.3662 22.4508 22.0908 22.8004 22.0908C23.15 22.0908 23.4342 22.3655 23.4342 22.7049C23.4335 23.0429 23.15 23.3176 22.8004 23.3183Z" fill="white"/>
<path d="M32.3 22.7042C32.3 21.6874 31.4495 20.8633 30.4 20.8633C29.3505 20.8633 28.5 21.6874 28.5 22.7042C28.5 23.7211 29.3505 24.5452 30.4 24.5452C31.4487 24.5444 32.2985 23.7211 32.3 22.7042ZM29.7669 22.7042C29.7669 22.3655 30.0504 22.0901 30.4007 22.0901C30.7503 22.0901 31.0338 22.3648 31.0338 22.7042C31.0338 23.0429 30.7503 23.3176 30.4007 23.3176C30.0504 23.3176 29.7669 23.0429 29.7669 22.7042Z" fill="white"/>
<path d="M12.0322 22.7054C12.0322 20.3331 10.0476 18.4102 7.5991 18.4102C5.15063 18.4102 3.16602 20.3331 3.16602 22.7054C3.16602 25.0778 5.15063 27.0007 7.5991 27.0007C10.0468 26.9986 12.03 25.0771 12.0322 22.7054ZM4.43219 22.7054C4.43219 21.0105 5.84977 19.637 7.59836 19.637C9.3477 19.637 10.7653 21.0105 10.7653 22.7054C10.7653 24.3997 9.3477 25.7732 7.59836 25.7732C5.85125 25.7718 4.43441 24.399 4.43219 22.7054Z" fill="white"/>
</g>
<defs>
<clipPath id="clip0_4563_1485">
<rect width="38" height="27" fill="white"/>
</clipPath>
</defs>
</svg>
