<svg width="24" height="30" viewBox="0 0 24 30" fill="none" xmlns="http://www.w3.org/2000/svg">
<mask id="mask0_4563_1566" style="mask-type:luminance" maskUnits="userSpaceOnUse" x="0" y="0" width="24" height="30">
<path d="M23.252 0H0V30H23.252V0Z" fill="white"/>
</mask>
<g mask="url(#mask0_4563_1566)">
<path d="M13.6857 12.5239V11.2751M9.56538 12.5239V11.2751M7.69221 15.8328H19.6182M3.63367 15.8328H5.19465M14.1857 19.267H19.6182M3.63367 19.267H11.6881M17.9946 22.7011H19.6182M7.69221 22.7011H15.4971M3.63367 22.7011H5.19465M3.63367 26.1353H19.6182M20.8662 29.5076H2.38489C1.3231 29.5076 0.511719 28.6962 0.511719 27.6344V2.34583C0.511719 1.28485 1.3231 0.472656 2.38489 0.472656H20.867C21.928 0.472656 22.7402 1.28404 22.7402 2.34583V27.6336C22.7394 28.6328 21.928 29.5076 20.8662 29.5076ZM13.3735 4.719C13.3735 5.68485 12.5906 6.46697 11.6255 6.46697C10.6597 6.46697 9.87757 5.68485 9.87757 4.719C9.87757 3.75314 10.6605 2.97103 11.6255 2.97103C12.5914 2.97022 13.3735 3.75314 13.3735 4.719ZM14.2483 12.5239C14.9353 12.5239 15.4971 11.9621 15.4971 11.2751C15.4971 8.52794 13.7491 7.84095 11.5629 7.84095C9.37757 7.84095 7.6296 8.52794 7.6296 11.2751C7.6296 11.9621 8.19139 12.5239 8.87839 12.5239H14.2483Z" stroke="white" stroke-width="1.5" stroke-miterlimit="10" stroke-linecap="round" stroke-linejoin="round"/>
</g>
</svg>
