<svg width="29" height="29" viewBox="0 0 29 29" fill="none" xmlns="http://www.w3.org/2000/svg">
<path d="M28.4306 28.9567H0.569427C0.25526 28.9567 0 28.6918 0 28.3658V25.4132C0 25.0872 0.25526 24.8223 0.569427 24.8223H28.4313C28.7455 24.8223 29.0008 25.0864 29.0008 25.4132V28.3658C29 28.6918 28.7447 28.9567 28.4306 28.9567ZM1.1381 27.7756H27.8619V26.0034H1.1381V27.7756Z" fill="white"/>
<path d="M27.2938 26.0076C26.9796 26.0076 26.7251 25.7434 26.7251 25.4166V15.3842C26.7251 14.406 25.9609 13.612 25.0184 13.612H3.98354C3.04104 13.612 2.27677 14.4052 2.27677 15.3842V25.4166C2.27677 25.7426 2.02227 26.0076 1.7081 26.0076C1.39393 26.0076 1.13867 25.7434 1.13867 25.4166V15.3842C1.13867 13.7539 2.41271 12.4316 3.98354 12.4316H25.0199C26.5907 12.4316 27.8647 13.7539 27.8647 15.3842V25.4166C27.8647 25.7426 27.6095 26.0076 27.2953 26.0076C27.2953 26.0076 27.2946 26.0076 27.2938 26.0076Z" fill="white"/>
<path d="M8.4781 23.6451C6.91784 23.6435 5.65286 22.3307 5.65135 20.7114V18.3161C5.6506 17.3489 4.89464 16.5644 3.96271 16.5636H1.70615C1.39198 16.5636 1.13672 16.2987 1.13672 15.9734C1.13672 15.6473 1.39122 15.3824 1.70615 15.3824H3.96271C5.52297 15.384 6.78794 16.6968 6.78945 18.3161V20.7114C6.78945 21.6793 7.54542 22.4639 8.4781 22.4639C9.41078 22.4639 10.1667 21.6793 10.1667 20.7114V19.4965C10.1448 17.8764 11.3924 16.5448 12.9527 16.5213C14.5137 16.4985 15.7976 17.7933 15.8195 19.4126C15.8195 19.4409 15.8195 19.4683 15.8195 19.4957V20.1204C15.8368 21.0884 16.6064 21.8588 17.5391 21.8408C18.4476 21.8236 19.1802 21.0633 19.1968 20.1204V18.3161C19.1953 16.696 20.4602 15.3816 22.022 15.3809C23.5838 15.3801 24.8503 16.6929 24.851 18.313V19.531C24.8518 20.499 25.6077 21.2828 26.5397 21.2835H27.2918C27.606 21.2835 27.8613 21.5485 27.8613 21.8745C27.8613 22.2006 27.6068 22.4655 27.2918 22.4655H26.5397C24.9794 22.4639 23.7144 21.1511 23.7129 19.5318V18.3169C23.7137 17.3489 22.9577 16.5636 22.025 16.5628C21.0923 16.562 20.3356 17.3466 20.3349 18.3138V20.122C20.313 21.742 19.0291 23.0369 17.4681 23.0141C15.938 22.9914 14.7033 21.7099 14.6814 20.122V19.4973C14.6987 18.5293 13.9564 17.7306 13.0237 17.7126C12.091 17.6946 11.3215 18.465 11.3041 19.433C11.3041 19.4542 11.3041 19.4761 11.3041 19.4973V20.7122C11.3041 22.3315 10.0384 23.6443 8.4781 23.6451Z" fill="white"/>
<path d="M16.4907 13.6146C16.1765 13.6146 15.9212 13.3505 15.9212 13.0237V7.12335H13.0764V13.0245C13.0764 13.3505 12.8211 13.6154 12.5069 13.6154C12.1928 13.6154 11.9375 13.3513 11.9375 13.0245V6.53238C11.9375 6.20632 12.1928 5.94141 12.5069 5.94141H16.4899C16.8041 5.94141 17.0586 6.20632 17.0586 6.53238V13.0237C17.0601 13.3497 16.8048 13.6146 16.4907 13.6146Z" fill="white"/>
<path d="M16.4899 9.48468H12.5069C12.1928 9.48468 11.9375 9.21976 11.9375 8.89371C11.9375 8.56765 12.1928 8.30273 12.5069 8.30273H16.4899C16.8041 8.30273 17.0586 8.56765 17.0586 8.89371C17.0586 9.21976 16.8041 9.48468 16.4899 9.48468Z" fill="white"/>
<mask id="mask0_4567_1585" style="mask-type:luminance" maskUnits="userSpaceOnUse" x="0" y="0" width="29" height="29">
<path d="M29 0H0V29H29V0Z" fill="white"/>
</mask>
<g mask="url(#mask0_4567_1585)">
<path d="M14.4991 7.12277C14.1849 7.12277 13.9297 6.85863 13.9297 6.53179V4.17417C13.9297 3.84812 14.1849 3.58398 14.4991 3.58398C14.8133 3.58398 15.0678 3.84812 15.0678 4.17417V6.5365C15.0655 6.86098 14.8118 7.12277 14.4991 7.12277Z" fill="white"/>
</g>
<mask id="mask1_4567_1585" style="mask-type:luminance" maskUnits="userSpaceOnUse" x="0" y="0" width="29" height="29">
<path d="M29 0H0V29H29V0Z" fill="white"/>
</mask>
<g mask="url(#mask1_4567_1585)">
<path d="M14.5005 4.76522C13.558 4.76522 12.793 3.97203 12.793 2.99386C12.793 2.23908 13.6584 0.85727 14.0315 0.297649C14.2105 0.0295946 14.5647 -0.0378108 14.823 0.147946C14.8796 0.188703 14.9279 0.238865 14.9672 0.297649C15.3388 0.85727 16.205 2.23908 16.205 2.99386C16.2058 3.97124 15.4422 4.76443 14.5005 4.76522ZM14.5005 1.72884C14.1735 2.301 13.9371 2.81516 13.9311 2.99543C13.9311 3.32149 14.1863 3.58562 14.5005 3.58562C14.8147 3.58562 15.0692 3.32149 15.0692 2.99543C15.0639 2.81203 14.8275 2.29865 14.5005 1.72649V1.72884Z" fill="white"/>
</g>
<path d="M9.66625 13.6136C9.35208 13.6136 9.09758 13.3495 9.09758 13.0226V8.89288H7.39081V13.0226C7.39081 13.3487 7.13555 13.6136 6.82138 13.6136C6.50721 13.6136 6.25195 13.3495 6.25195 13.0226V8.30191C6.25195 7.97586 6.50721 7.71094 6.82138 7.71094H9.66625C9.98042 7.71094 10.2357 7.97586 10.2357 8.30191V13.0226C10.2357 13.3487 9.98117 13.6136 9.66625 13.6136Z" fill="white"/>
<path d="M9.66625 11.2526H6.82138C6.50721 11.2526 6.25195 10.9885 6.25195 10.6625C6.25195 10.3364 6.50721 10.0723 6.82138 10.0723H9.66625C9.98042 10.0723 10.2357 10.3364 10.2357 10.6625C10.2357 10.9885 9.98117 11.2526 9.66625 11.2526Z" fill="white"/>
<path d="M8.24521 8.8931C7.93104 8.8931 7.67578 8.62818 7.67578 8.30212V5.94058C7.67578 5.61453 7.93104 5.34961 8.24521 5.34961C8.55938 5.34961 8.81388 5.61374 8.81388 5.94058V8.30291C8.81388 8.62818 8.55938 8.8931 8.24521 8.8931Z" fill="white"/>
<path d="M8.24583 6.53301C7.30258 6.53301 6.53906 5.73982 6.53906 4.76166C6.53906 4.00687 7.40453 2.62506 7.77685 2.06544C7.95583 1.7966 8.31003 1.72998 8.56831 1.91574C8.62495 1.95649 8.67404 2.00666 8.71255 2.06544C9.08487 2.62506 9.95034 4.00687 9.95034 4.76166C9.95109 5.73903 9.18758 6.53222 8.24583 6.53301ZM8.24583 3.49584C7.91807 4.06879 7.68169 4.58217 7.67641 4.76244C7.67641 5.08849 7.93167 5.35263 8.24583 5.35263C8.56 5.35263 8.81451 5.08849 8.81451 4.76244C8.80922 4.58138 8.57284 4.06722 8.24583 3.49584Z" fill="white"/>
<path d="M22.176 13.6136C21.8619 13.6136 21.6066 13.3495 21.6066 13.0226V8.89288H19.8998V13.0226C19.8998 13.3487 19.6446 13.6136 19.3311 13.6136C19.017 13.6136 18.7617 13.3495 18.7617 13.0226V8.30191C18.7617 7.97586 19.0162 7.71094 19.3311 7.71094H22.176C22.4902 7.71094 22.7454 7.97586 22.7454 8.30191V13.0226C22.7454 13.3487 22.4902 13.6136 22.176 13.6136Z" fill="white"/>
<path d="M22.176 11.2526H19.3311C19.017 11.2526 18.7617 10.9885 18.7617 10.6625C18.7617 10.3364 19.0162 10.0723 19.3311 10.0723H22.176C22.4902 10.0723 22.7454 10.3364 22.7454 10.6625C22.7454 10.9885 22.4902 11.2526 22.176 11.2526Z" fill="white"/>
<path d="M20.755 8.8931C20.4408 8.8931 20.1855 8.62818 20.1855 8.30212V5.94058C20.1855 5.61453 20.4408 5.34961 20.755 5.34961C21.0691 5.34961 21.3244 5.61374 21.3244 5.94058V8.30291C21.3244 8.62818 21.0691 8.8931 20.755 8.8931Z" fill="white"/>
<path d="M20.7544 6.53301C19.8119 6.53301 19.0469 5.73982 19.0469 4.76166C19.0469 4.00687 19.9131 2.62506 20.2854 2.06544C20.4636 1.7966 20.8186 1.72998 21.0769 1.91574C21.1335 1.95649 21.1818 2.00666 21.2211 2.06544C21.5934 2.62506 22.4589 4.00687 22.4589 4.76166C22.4604 5.73903 21.6969 6.53222 20.7544 6.53301ZM20.7544 3.49584C20.4274 4.06879 20.1903 4.58217 20.185 4.76244C20.185 5.08849 20.4402 5.35263 20.7544 5.35263C21.0686 5.35263 21.3238 5.08849 21.3238 4.76244C21.3178 4.58138 21.0814 4.06801 20.7544 3.49584Z" fill="white"/>
</svg>
