<svg width="30" height="28" viewBox="0 0 30 28" fill="none" xmlns="http://www.w3.org/2000/svg">
<g clip-path="url(#clip0_4563_1537)">
<mask id="mask0_4563_1537" style="mask-type:luminance" maskUnits="userSpaceOnUse" x="0" y="0" width="30" height="28">
<path d="M30 0H0V28H30V0Z" fill="white"/>
</mask>
<g mask="url(#mask0_4563_1537)">
<path d="M27.5 8.91036H27.1524L22.8586 1.27559C22.5266 0.685363 21.9907 0.262977 21.3477 0.0871813C21.1078 0.0227495 20.8649 -0.00668232 20.6242 0.00127223C20.2211 0.0155904 19.825 0.131727 19.4649 0.343318L1.23909 11.148C0.442213 11.6205 -0.00388081 12.482 2.54394e-05 13.3649C0.00158794 13.7913 0.110182 14.224 0.332057 14.6185L3.75003 20.6966V25.455C3.75003 26.8582 4.8719 28.0005 6.25003 28.0005H27.5C28.8782 28.0005 30 26.859 30 25.455V11.4558C30 10.0518 28.8782 8.91036 27.5 8.91036ZM3.75003 11.455V18.136L1.41565 13.9854C1.07346 13.3768 1.27659 12.5973 1.86878 12.2465L3.7844 11.1114C3.76878 11.2251 3.75003 11.3373 3.75003 11.455ZM20.0953 1.44423C20.3789 1.27559 20.7078 1.22945 21.0242 1.31695C21.343 1.40366 21.6086 1.61366 21.775 1.90877L25.7133 8.91116H7.49846L20.0953 1.44423ZM28.75 25.455C28.75 26.1566 28.1899 26.7278 27.5 26.7278H6.25003C5.56018 26.7278 5.00003 26.1566 5.00003 25.455V11.455C5.00003 10.7534 5.56018 10.1823 6.25003 10.1823H27.5C28.1899 10.1823 28.75 10.7534 28.75 11.455V25.455Z" fill="white"/>
</g>
<path d="M26.875 20.3633H19.375C19.0297 20.3633 18.75 20.6481 18.75 20.9996C18.75 21.3512 19.0297 21.636 19.375 21.636H26.875C27.2203 21.636 27.5 21.3512 27.5 20.9996C27.5 20.6481 27.2203 20.3633 26.875 20.3633Z" fill="white"/>
<path d="M26.875 16.5449H16.875C16.5297 16.5449 16.25 16.8297 16.25 17.1813C16.25 17.5329 16.5297 17.8176 16.875 17.8176H26.875C27.2203 17.8176 27.5 17.5329 27.5 17.1813C27.5 16.8297 27.2203 16.5449 26.875 16.5449Z" fill="white"/>
<path d="M11.25 19.0909C12.6281 19.0909 13.75 17.9494 13.75 16.5455C13.75 15.1415 12.6281 14 11.25 14C9.87188 14 8.75 15.1415 8.75 16.5455C8.75 17.9494 9.87188 19.0909 11.25 19.0909ZM11.25 15.2727C11.9398 15.2727 12.5 15.8439 12.5 16.5455C12.5 17.247 11.9398 17.8182 11.25 17.8182C10.5602 17.8182 10 17.247 10 16.5455C10 15.8439 10.5602 15.2727 11.25 15.2727Z" fill="white"/>
<path d="M14.9844 20.6644C14.1102 20.2364 12.7539 19.7266 11.25 19.7266C9.74609 19.7266 8.38984 20.2364 7.51562 20.6644C6.73437 21.047 6.25 21.8107 6.25 22.657V22.9482C6.25 23.6283 6.81016 24.1811 7.5 24.1811H15C15.6898 24.1811 16.25 23.6283 16.25 22.9482V22.657C16.25 21.8107 15.7656 21.047 14.9844 20.6644ZM15 22.9084L7.5 22.9482V22.657C7.5 22.3038 7.71328 21.9793 8.05781 21.8114C8.81484 21.4416 9.98203 20.9993 11.25 20.9993C12.518 20.9993 13.6852 21.4408 14.4422 21.8114C14.7867 21.9801 15 22.3046 15 22.657V22.9084Z" fill="white"/>
</g>
<defs>
<clipPath id="clip0_4563_1537">
<rect width="30" height="28" fill="white"/>
</clipPath>
</defs>
</svg>
