<svg width="34" height="29" viewBox="0 0 34 29" fill="none" xmlns="http://www.w3.org/2000/svg">
<g clip-path="url(#clip0_4563_1473)">
<mask id="mask0_4563_1473" style="mask-type:luminance" maskUnits="userSpaceOnUse" x="0" y="0" width="34" height="29">
<path d="M34 0H0V29H34V0Z" fill="white"/>
</mask>
<g mask="url(#mask0_4563_1473)">
<path d="M0.996175 25.1176H5.97664V28.0133C5.97664 28.5462 6.42289 28.9786 6.97274 28.9786H33.004C33.5538 28.9786 34.0001 28.5462 34.0001 28.0133V2.91719C34.0001 2.38438 33.5538 1.95196 33.004 1.95196H28.0235V0.986721C28.0235 0.45391 27.5773 0.0214844 27.0274 0.0214844C26.4776 0.0214844 26.0313 0.45391 26.0313 0.986721V1.95196H20.9845V0.986721C20.9845 0.45391 20.5382 0.0214844 19.9884 0.0214844C19.4385 0.0214844 18.9923 0.45391 18.9923 0.986721V1.95196H14.0118V0.986721C14.0118 0.45391 13.5656 0.0214844 13.0157 0.0214844C12.4659 0.0214844 12.0196 0.45391 12.0196 0.986721V1.95196H6.97274C6.42289 1.95196 5.97664 2.38438 5.97664 2.91719V8.70861C5.97664 15.8222 2.9255 21.2953 0.358675 23.4111C0.0363837 23.6719 -0.0831475 24.0992 0.0594046 24.481C0.201957 24.8628 0.577373 25.1176 0.996175 25.1176ZM32.0079 27.0481H7.96883V25.1176H27.0274C27.2603 25.1176 27.4861 25.0387 27.6649 24.8937C28.862 23.9276 30.717 21.6265 32.0079 18.6793V27.0481ZM7.96883 3.88243H12.0196V4.84767C12.0196 5.38048 12.4659 5.8129 13.0157 5.8129C13.5656 5.8129 14.0118 5.38048 14.0118 4.84767V3.88243H18.9923V4.84767C18.9923 5.38048 19.4385 5.8129 19.9884 5.8129C20.5382 5.8129 20.9845 5.38048 20.9845 4.84767V3.88243H26.0313V4.84767C26.0313 5.38048 26.4776 5.8129 27.0274 5.8129C27.5773 5.8129 28.0235 5.38048 28.0235 4.84767V3.88243H32.0079V7.74338H7.96883V3.88243ZM7.95201 9.67299H31.9902C31.7653 15.7965 29.3401 20.6141 26.637 23.1872H3.26196C6.3255 19.4043 7.78732 14.4794 7.95201 9.67299Z" fill="white"/>
</g>
</g>
<defs>
<clipPath id="clip0_4563_1473">
<rect width="34" height="29" fill="white"/>
</clipPath>
</defs>
</svg>
