<svg width="26" height="31" viewBox="0 0 26 31" fill="none" xmlns="http://www.w3.org/2000/svg">
<g clip-path="url(#clip0_4563_1548)">
<mask id="mask0_4563_1548" style="mask-type:luminance" maskUnits="userSpaceOnUse" x="0" y="0" width="26" height="31">
<path d="M26 0H0V31H26V0Z" fill="white"/>
</mask>
<g mask="url(#mask0_4563_1548)">
<path d="M21.5841 12.8989V2.1038C21.5841 0.943724 20.6275 0 19.4534 0H2.13069C0.954969 0 0 0.943724 0 2.1038V24.536C0 25.6961 0.955786 26.639 2.13069 26.639H15.2067V30.0296C15.2067 30.7707 16.0194 31.2406 16.6743 30.8708L19.6218 29.2078C22.8767 31.0444 22.7067 30.9984 23.0558 30.9984C23.597 30.9984 24.0369 30.5641 24.0369 30.0296V23.4284C27.5281 20.1169 26.1455 14.3585 21.5841 12.8989ZM2.13069 24.7023C2.03748 24.7023 1.96226 24.6272 1.96226 24.536V2.1038C1.96226 2.01177 2.0383 1.9375 2.13069 1.9375H19.4534C19.5466 1.9375 19.6218 2.01177 19.6218 2.1038V12.5929C16.1053 12.5929 13.2445 15.4177 13.2445 18.8898C13.2445 20.6715 13.9983 22.2829 15.2067 23.4292V24.7023H2.13069ZM22.0747 28.361L20.1083 27.2517C19.8066 27.0814 19.4362 27.0814 19.1345 27.2517L17.169 28.361V24.7023C18.7339 25.3482 20.5081 25.349 22.0747 24.7023V28.361ZM19.6218 23.2492C17.1878 23.2492 15.2067 21.2939 15.2067 18.8898C15.2067 16.4865 17.187 14.5304 19.6218 14.5304C22.0559 14.5304 24.0369 16.4857 24.0369 18.8898C24.0369 21.2939 22.0559 23.2492 19.6218 23.2492Z" fill="white"/>
</g>
<path d="M19.1311 21.3726C18.7476 21.3726 18.6994 21.283 17.1165 20.2416C16.666 19.9445 16.5441 19.3431 16.8442 18.8983C17.1451 18.4535 17.7542 18.3332 18.2047 18.6295L18.8604 19.0605L20.2782 16.9608C20.5791 16.5152 21.1882 16.3957 21.6387 16.692C22.09 16.989 22.211 17.5897 21.9109 18.0353L19.9487 20.9415C19.7598 21.2209 19.4483 21.3726 19.1311 21.3726Z" fill="white"/>
<path d="M14.227 6.78125H5.88738C5.34612 6.78125 4.90625 6.34773 4.90625 5.8125C4.90625 5.27807 5.34612 4.84375 5.88738 4.84375H14.227C14.7683 4.84375 15.2081 5.27807 15.2081 5.8125C15.2081 6.34693 14.7683 6.78125 14.227 6.78125Z" fill="white"/>
<path d="M14.227 10.6562H5.88738C5.34612 10.6562 4.90625 10.2219 4.90625 9.6875C4.90625 9.15227 5.34612 8.71875 5.88738 8.71875H14.227C14.7683 8.71875 15.2081 9.15227 15.2081 9.6875C15.2081 10.2219 14.7683 10.6562 14.227 10.6562Z" fill="white"/>
<path d="M10.793 14.5312H5.88738C5.34612 14.5312 4.90625 14.0977 4.90625 13.5625C4.90625 13.0281 5.34612 12.5938 5.88738 12.5938H10.793C11.3351 12.5938 11.7742 13.0281 11.7742 13.5625C11.7742 14.0977 11.3351 14.5312 10.793 14.5312Z" fill="white"/>
</g>
<defs>
<clipPath id="clip0_4563_1548">
<rect width="26" height="31" fill="white"/>
</clipPath>
</defs>
</svg>
