<svg width="30" height="30" viewBox="0 0 30 30" fill="none" xmlns="http://www.w3.org/2000/svg">
<path d="M28.9076 14.4921C28.9076 18.0746 27.4845 21.5104 24.9512 24.0436C22.418 26.5768 18.9822 28 15.3997 28C-2.47053 27.269 -2.47053 1.70718 15.4235 1C19.006 1 22.4418 2.42315 24.9751 4.95639C27.5083 7.48962 28.9314 10.9254 28.9314 14.5079L28.9076 14.4921Z" stroke="white" stroke-width="1.19188" stroke-miterlimit="10" stroke-dasharray="1.57 1.57"/>
<path d="M15.423 25.0356C21.2464 25.0356 25.9672 20.3148 25.9672 14.4914C25.9672 8.66804 21.2464 3.94727 15.423 3.94727C9.59968 3.94727 4.87891 8.66804 4.87891 14.4914C4.87891 20.3148 9.59968 25.0356 15.423 25.0356Z" stroke="white" stroke-width="1.19188" stroke-miterlimit="10"/>
<path d="M7.66613 16.5352V12.2508H8.63235V15.7215H10.3359V16.5352H7.66613ZM12.5522 12.1745C13.8681 12.1745 14.5864 13.1598 14.5864 14.3485C14.5864 15.7596 13.7409 16.6051 12.4823 16.6051C11.2173 16.6051 10.4672 15.6452 10.4672 14.4184C10.4672 13.1343 11.2936 12.1745 12.5522 12.1745ZM12.5332 12.9436C11.8721 12.9436 11.4907 13.5666 11.4907 14.3993C11.4907 15.2448 11.8848 15.8359 12.5332 15.8359C13.1879 15.8359 13.5629 15.213 13.5629 14.3802C13.5629 13.6047 13.2006 12.9436 12.5332 12.9436ZM18.7996 14.0815V16.3381C18.5008 16.4398 17.935 16.5797 17.3693 16.5797C16.5874 16.5797 16.0217 16.3826 15.6276 16.0076C15.2398 15.6325 15.0237 15.0731 15.0237 14.4438C15.03 13.0199 16.0662 12.2063 17.471 12.2063C18.024 12.2063 18.4499 12.3143 18.6597 12.4097L18.4563 13.1915C18.2211 13.0835 17.935 13.0072 17.4647 13.0072C16.6574 13.0072 16.0408 13.4585 16.0408 14.393C16.0408 15.2829 16.6001 15.7978 17.3947 15.7978C17.6109 15.7978 17.7888 15.7724 17.8651 15.7406V14.8379H17.204V14.0815H18.7996ZM21.4416 12.1745C22.7575 12.1745 23.4758 13.1598 23.4758 14.3485C23.4758 15.7596 22.6303 16.6051 21.3717 16.6051C20.1067 16.6051 19.3567 15.6452 19.3567 14.4184C19.3567 13.1343 20.183 12.1745 21.4416 12.1745ZM21.4226 12.9436C20.7615 12.9436 20.3801 13.5666 20.3801 14.3993C20.3801 15.2448 20.7742 15.8359 21.4226 15.8359C22.0773 15.8359 22.4524 15.213 22.4524 14.3802C22.4524 13.6047 22.09 12.9436 21.4226 12.9436Z" fill="white"/>
</svg>
