<svg width="31" height="31" viewBox="0 0 31 31" fill="none" xmlns="http://www.w3.org/2000/svg">
<path d="M1.51897 30.1H29.481C29.82 30.1 30.1 29.82 30.1 29.481V1.51897C30.1 1.18004 29.82 0.9 29.481 0.9H1.51897C1.18004 0.9 0.9 1.18004 0.9 1.51897V29.481C0.9 29.82 1.18004 30.1 1.51897 30.1ZM28.8621 2.13794V28.8621H2.13794V2.13794H28.8621Z" fill="white" stroke="white" stroke-width="0.2"/>
<path d="M6.07366 27.7117L6.07476 27.7124C6.17961 27.7769 6.2945 27.8103 6.41087 27.8103C6.53311 27.8103 6.64323 27.7774 6.74379 27.7032C6.86273 27.6298 7.37658 27.2924 7.89167 26.8102C8.40875 26.3261 8.94619 25.6788 9.06279 24.9938L9.06292 24.993C9.1366 24.5362 9.02538 24.1134 8.73811 23.7524C8.21904 23.0964 7.68261 22.9799 7.31326 22.995L7.31326 22.995L7.31199 22.995C6.9289 23.0156 6.6119 23.1866 6.37777 23.3768C6.12127 23.201 5.7907 23.0433 5.39369 23.0433H5.38677C5.03259 23.0433 4.53244 23.1806 4.07652 23.7596L4.07652 23.7596L4.07606 23.7602C3.79693 24.1201 3.67774 24.5497 3.75907 25.0083C3.87928 25.6929 4.41646 26.3383 4.93181 26.8206C5.45109 27.3066 5.96717 27.6443 6.07366 27.7117ZM6.93065 24.5818L6.93068 24.5818L6.93213 24.5794C6.96344 24.5282 7.03514 24.4428 7.12426 24.369C7.21525 24.2936 7.30672 24.2449 7.37805 24.2396C7.42561 24.2381 7.48991 24.2641 7.56646 24.3223C7.6403 24.3784 7.71199 24.4542 7.77138 24.5266C7.83824 24.6164 7.85747 24.6928 7.84136 24.7951C7.8015 25.0399 7.59597 25.3442 7.30498 25.6542C7.03584 25.9408 6.70708 26.2183 6.41046 26.4379C6.1145 26.2216 5.78766 25.946 5.52033 25.6603C5.23142 25.3516 5.02741 25.0473 4.98737 24.8024C4.97093 24.6921 4.99103 24.6155 5.05747 24.5264C5.19907 24.3515 5.31107 24.2882 5.39369 24.2882C5.47564 24.2882 5.58217 24.3367 5.68981 24.4126C5.79373 24.4859 5.88193 24.5728 5.92482 24.6247C6.04548 24.777 6.24109 24.8786 6.43802 24.8623C6.63521 24.8534 6.82323 24.747 6.93065 24.5818Z" fill="white" stroke="white" stroke-width="0.2"/>
<path d="M14.6206 25.4063V25.4058C14.6206 24.0774 13.5448 23.0016 12.2163 23.0016C10.8879 23.0016 9.81211 24.0774 9.81211 25.4058C9.81211 26.7342 10.8879 27.81 12.2163 27.81C13.5383 27.81 14.6133 26.7269 14.6206 25.4063ZM11.05 25.4058C11.05 24.7621 11.5727 24.2395 12.2163 24.2395C12.8534 24.2395 13.3826 24.7625 13.3826 25.4058C13.3826 26.0494 12.86 26.5721 12.2163 26.5721C11.5727 26.5721 11.05 26.0494 11.05 25.4058Z" fill="white" stroke="white" stroke-width="0.2"/>
<path d="M11.3277 7.79528C11.3277 10.0925 13.1993 11.964 15.4965 11.964C17.7936 11.964 19.6652 10.0925 19.6652 7.79528C19.6652 5.49811 17.7936 3.62656 15.4965 3.62656C13.1993 3.62656 11.3277 5.49811 11.3277 7.79528ZM12.5657 7.79528C12.5657 6.17612 13.8839 4.8645 15.4965 4.8645C17.1158 4.8645 18.4272 6.17597 18.4272 7.79528C18.4272 9.41444 17.109 10.7261 15.4965 10.7261C13.8839 10.7261 12.5657 9.41444 12.5657 7.79528Z" fill="white" stroke="white" stroke-width="0.2"/>
<path d="M20.939 17.4056C20.939 17.7446 21.219 18.0246 21.5579 18.0246C21.9047 18.0246 22.1769 17.7437 22.1769 17.4056C22.1769 13.7245 19.1844 10.732 15.5033 10.732C11.8292 10.732 8.82969 13.7245 8.82969 17.4056C8.82969 17.7446 9.10973 18.0246 9.44866 18.0246C9.78759 18.0246 10.0676 17.7446 10.0676 17.4056C10.0676 14.4093 12.507 11.97 15.5033 11.97C18.4996 11.97 20.939 14.4093 20.939 17.4056Z" fill="white" stroke="white" stroke-width="0.2"/>
<path d="M1.51897 21.886H21.5581C21.9048 21.886 22.1771 21.6051 22.1771 21.267C22.1771 20.9281 21.897 20.648 21.5581 20.648H1.51897C1.18004 20.648 0.9 20.9281 0.9 21.267C0.9 21.6059 1.18004 21.886 1.51897 21.886Z" fill="white" stroke="white" stroke-width="0.2"/>
<path d="M24.2143 21.886H29.4801C29.819 21.886 30.0991 21.6059 30.0991 21.267C30.0991 20.9281 29.819 20.648 29.4801 20.648H24.2143C23.8754 20.648 23.5953 20.9281 23.5953 21.267C23.5953 21.6059 23.8754 21.886 24.2143 21.886Z" fill="white" stroke="white" stroke-width="0.2"/>
<path d="M16.6244 24.2395H18.8733C19.22 24.2395 19.4923 23.9586 19.4923 23.6205C19.4923 23.2816 19.2122 23.0016 18.8733 23.0016H16.6244C16.2855 23.0016 16.0055 23.2816 16.0055 23.6205C16.0055 23.9595 16.2855 24.2395 16.6244 24.2395Z" fill="white" stroke="white" stroke-width="0.2"/>
<path d="M16.6244 26.0247H18.8733C19.22 26.0247 19.4923 25.7437 19.4923 25.4057C19.4923 25.0668 19.2122 24.7867 18.8733 24.7867H16.6244C16.2855 24.7867 16.0055 25.0668 16.0055 25.4057C16.0055 25.7446 16.2855 26.0247 16.6244 26.0247Z" fill="white" stroke="white" stroke-width="0.2"/>
<path d="M16.6244 27.8098H18.8733C19.22 27.8098 19.4923 27.5289 19.4923 27.1908C19.4923 26.8519 19.2122 26.5719 18.8733 26.5719H16.6244C16.2855 26.5719 16.0055 26.8519 16.0055 27.1908C16.0055 27.5298 16.2855 27.8098 16.6244 27.8098Z" fill="white" stroke="white" stroke-width="0.2"/>
</svg>
