<svg width="28" height="22" viewBox="0 0 28 22" fill="none" xmlns="http://www.w3.org/2000/svg">
<g clip-path="url(#clip0_4563_1525)">
<mask id="mask0_4563_1525" style="mask-type:luminance" maskUnits="userSpaceOnUse" x="0" y="0" width="28" height="22">
<path d="M28 0H0V22H28V0Z" fill="white"/>
</mask>
<g mask="url(#mask0_4563_1525)">
<path d="M25.5765 0.00195312H6.72171C5.38588 0.00195312 4.29942 1.15733 4.29942 2.5776V4.25753H2.69452C1.35869 4.25753 0.271503 5.41291 0.271503 6.83318V13.2596C0.270044 13.4826 0.355357 13.6973 0.507753 13.856C0.660878 14.0146 0.869419 14.1037 1.08671 14.1037C1.304 14.1037 1.51254 14.0146 1.66567 13.856C1.81879 13.6973 1.90411 13.4826 1.90192 13.2596V6.83318C1.90192 6.33631 2.25702 5.93148 2.69379 5.93148H13.0472C13.2645 5.93297 13.4738 5.84617 13.6284 5.68828C13.783 5.53114 13.8697 5.31712 13.8697 5.09413C13.8697 4.87114 13.783 4.65712 13.6284 4.49998C13.4738 4.34284 13.2653 4.25529 13.0472 4.25678H5.92984V2.5776C5.92984 2.08073 6.28567 1.6759 6.72171 1.6759H25.5772C26.014 1.6759 26.3691 2.08073 26.3691 2.5776V7.68923C26.3676 7.91223 26.4522 8.12699 26.6054 8.28563C26.7585 8.44427 26.967 8.53331 27.1843 8.53331C27.4016 8.53331 27.6101 8.44427 27.7633 8.28563C27.9164 8.12699 28.0017 7.91223 28.0003 7.68923V2.5776C27.9995 1.15733 26.9123 0.00195312 25.5765 0.00195312Z" fill="white"/>
</g>
<path d="M26.9128 11.482C26.697 11.482 26.4892 11.5703 26.336 11.7267C26.1829 11.8838 26.0969 12.0963 26.0969 12.3186V15.1658C26.0969 15.6627 25.7418 16.0675 25.305 16.0675H23.9225V7.27877C23.9225 5.85925 22.8353 4.70312 21.4995 4.70312H16.4347C15.9841 4.70312 15.6195 5.07802 15.6195 5.53972C15.6195 6.00217 15.9848 6.37632 16.4347 6.37632H21.4995C21.9355 6.37632 22.2914 6.78115 22.2914 7.27802V13.5607L18.227 10.4688C17.5175 9.94496 16.5616 9.94496 15.8514 10.4688L9.41427 15.3671C9.28229 15.4532 9.11385 15.4532 8.98187 15.3671L7.30844 14.0935C6.59896 13.5697 5.64302 13.5697 4.93354 14.0935L0.392292 17.5484C0.14875 17.7003 0 17.9712 0 18.2631V19.4214C0 19.9841 0.163333 21.9971 2.42302 21.9971H21.5002C22.836 21.9971 23.9225 20.8417 23.9225 19.4214V17.7415H25.3057C26.6416 17.7415 27.728 16.5861 27.728 15.1658V12.3186C27.728 11.8561 27.3627 11.482 26.9128 11.482ZM21.5002 20.3231H2.42302C2.1824 20.3231 1.73979 20.0941 1.63115 19.592C1.54583 19.1969 1.63115 18.6903 1.63115 18.6903L5.90479 15.439C6.03677 15.3529 6.20521 15.3529 6.33719 15.439L8.01062 16.7126C8.7201 17.2364 9.67604 17.2364 10.3855 16.7126L16.8233 11.8142C16.9553 11.7282 17.1237 11.7282 17.2557 11.8142C17.2557 11.8142 22.2629 15.6201 22.2914 15.6373V19.4222C22.2914 19.919 21.9362 20.3231 21.5002 20.3231Z" fill="white"/>
<path d="M9.12928 9.59745C9.12928 8.59398 8.54084 7.68928 7.6374 7.30615C6.73396 6.92228 5.69417 7.13405 5.00292 7.84343C4.31167 8.55282 4.10459 9.6199 4.47938 10.547C4.85344 11.4742 5.73501 12.0781 6.71209 12.0781C8.04646 12.0766 9.12782 10.9668 9.12928 9.59745ZM5.92678 9.59745C5.92678 9.27119 6.11782 8.97711 6.41167 8.85214C6.70553 8.72717 7.04386 8.79602 7.26844 9.02724C7.49303 9.25772 7.56011 9.60493 7.43907 9.90649C7.3173 10.2081 7.03073 10.4049 6.71282 10.4049C6.27823 10.4034 5.92678 10.0427 5.92678 9.59745Z" fill="white"/>
</g>
<defs>
<clipPath id="clip0_4563_1525">
<rect width="28" height="22" fill="white"/>
</clipPath>
</defs>
</svg>
