<svg width="30" height="30" viewBox="0 0 30 30" fill="none" xmlns="http://www.w3.org/2000/svg">
<path d="M29.1211 0H4.39453C3.90937 0 3.51562 0.393164 3.51562 0.878906V3.51562H0.878906C0.393164 3.51562 0 3.90937 0 4.39453V28.9494C0 29.4346 0.393164 29.8283 0.878906 29.8283H25.6055C26.0906 29.8283 26.4844 29.4346 26.4844 28.9494V26.3127H29.1211C29.6063 26.3127 30 25.9195 30 25.4338V0.878906C30 0.393164 29.6063 0 29.1211 0ZM24.7266 28.0705H1.75781V5.27344H3.51562V25.4338C3.51562 25.9195 3.90937 26.3127 4.39453 26.3127H24.7266V28.0705ZM28.2422 24.5549H5.27344V1.75781H28.2422V24.5549Z" fill="white"/>
<path d="M7.91016 22.5615H25.6049C26.09 22.5615 26.4838 22.1684 26.4838 21.6826V4.62891C26.4838 4.14316 26.09 3.75 25.6049 3.75H7.91016C7.42441 3.75 7.03125 4.14316 7.03125 4.62891V21.6826C7.03125 22.1684 7.42441 22.5615 7.91016 22.5615ZM8.78906 5.50781H24.726V20.8037H8.78906V5.50781Z" fill="white"/>
<path d="M18.932 8.74609C18.1585 8.74609 17.4314 9.04727 16.8847 9.59453L16.7582 9.72168L16.6316 9.59453C16.0849 9.04727 15.3578 8.74609 14.5843 8.74609C13.8109 8.74609 13.0843 9.04727 12.5376 9.59453C11.4097 10.7236 11.4097 12.5611 12.5353 13.6885L16.1212 17.3049C16.2859 17.4713 16.5103 17.5645 16.7441 17.565H16.7453C16.9785 17.565 17.2023 17.4719 17.3675 17.3072L20.9792 13.6908C22.1072 12.5617 22.1072 10.7242 20.9792 9.59453C20.432 9.04785 19.7054 8.74609 18.932 8.74609ZM19.7353 12.4486L16.7476 15.4398L13.7816 12.4486C13.338 12.0045 13.338 11.2814 13.7816 10.8373C13.996 10.6223 14.2814 10.5039 14.5849 10.5039C14.8884 10.5039 15.1738 10.6223 15.3882 10.8373L16.1371 11.5867C16.3017 11.752 16.5255 11.8445 16.7587 11.8445C16.9919 11.8445 17.2158 11.752 17.3804 11.5867L18.1292 10.8373C18.3437 10.6223 18.6291 10.5039 18.9326 10.5039C19.2361 10.5039 19.5209 10.6223 19.7359 10.8373C20.1789 11.2814 20.1789 12.0045 19.7353 12.4486Z" fill="white"/>
</svg>
