<svg width="37" height="42" viewBox="0 0 37 42" fill="none" xmlns="http://www.w3.org/2000/svg">
<circle opacity="0.5" cx="12.5" cy="12.5" r="12.5" fill="url(#paint0_linear_4554_1248)"/>
<g clip-path="url(#clip0_4554_1248)">
<path d="M36.4688 18.1307H34.1383C34.1041 18.0804 34.0869 18.0302 34.0698 17.9799L35.7148 16.3719C35.8005 16.2881 35.8691 16.1541 35.8691 16.0201C35.8691 15.8861 35.8177 15.7521 35.7148 15.6683L33.2301 13.2395C33.0245 13.0385 32.7161 13.0385 32.5104 13.2395L30.8825 14.8476C30.8311 14.8141 30.7797 14.7973 30.7283 14.7806V12.5025C30.7283 12.2345 30.5055 12 30.2142 12H26.7014C26.4101 12 26.1873 12.2178 26.1873 12.5025V14.7806C26.1188 14.7973 26.0673 14.8141 26.0159 14.8476L24.3709 13.2228C24.1824 13.0385 23.8397 13.0385 23.6512 13.2228L21.1665 15.6516C20.9609 15.8526 20.9609 16.1709 21.1665 16.3719L22.8115 17.9799C22.7773 18.0302 22.7601 18.0804 22.743 18.1307H20.4125C20.1212 18.1307 19.8984 18.3652 19.8984 18.6332V22.067C19.8984 22.335 20.1212 22.5695 20.4125 22.5695H22.743C22.7601 22.6198 22.7944 22.67 22.8115 22.7203L21.1494 24.3283C20.9437 24.5293 20.9437 24.8476 21.1494 25.0486L23.6341 27.4774C23.7369 27.5611 23.874 27.6114 24.011 27.6114C24.1481 27.6114 24.2852 27.5611 24.3709 27.4606L26.0159 25.8526C26.0673 25.8861 26.1188 25.9028 26.1702 25.9196V28.1977C26.1702 28.4657 26.3929 28.7002 26.6842 28.7002H30.1971C30.4884 28.7002 30.7112 28.4657 30.7112 28.1977V25.9363C30.7626 25.9196 30.814 25.9028 30.8654 25.8693L32.5104 27.4774C32.6989 27.6616 33.0416 27.6616 33.2301 27.4774L35.7148 25.0486C35.8005 24.9481 35.8691 24.8308 35.8691 24.6968C35.8691 24.5628 35.8177 24.4288 35.7148 24.3451L34.0698 22.737C34.0869 22.6868 34.1041 22.6365 34.1383 22.5863H36.4688C36.7601 22.5863 36.9829 22.3518 36.9829 22.0838V18.6332C37 18.3652 36.7601 18.1307 36.4688 18.1307ZM35.9547 21.5645H33.7785C33.5557 21.5645 33.3672 21.6985 33.2815 21.9162C33.1959 22.1508 33.0931 22.3853 32.9902 22.603C32.8874 22.804 32.9217 23.0385 33.0759 23.1893L34.6181 24.6968L32.8874 26.4054L31.3452 24.8978C31.191 24.7471 30.9511 24.7136 30.7626 24.7973C30.5227 24.9146 30.2999 24.9983 30.0429 25.0988C29.8372 25.1658 29.683 25.3501 29.683 25.5678V27.6951H27.1983V25.5678C27.1983 25.3501 27.0612 25.1658 26.8385 25.0988C26.5986 25.0151 26.3587 24.9146 26.1359 24.8141C25.9303 24.7136 25.7075 24.7471 25.5361 24.8978L24.011 26.4054L22.2461 24.6968L23.7883 23.1893C23.9425 23.0385 23.9768 22.804 23.8911 22.603C23.7711 22.3853 23.6683 22.1508 23.5826 21.9162C23.5141 21.6985 23.3256 21.5645 23.1028 21.5645H20.9266V19.1357H23.1028C23.3256 19.1357 23.5141 19.0017 23.5998 18.7839C23.6855 18.5494 23.7883 18.3149 23.8911 18.0972C23.9939 17.9129 23.9425 17.6784 23.7883 17.5109L22.2461 16.0034L24.011 14.2781L25.5361 15.7856C25.7075 15.9531 25.9474 15.9866 26.1359 15.8861C26.3587 15.7688 26.5986 15.6683 26.8385 15.6013C27.0441 15.5343 27.1983 15.3333 27.1983 15.1156V13.005H29.683V15.1323C29.683 15.3501 29.8372 15.5511 30.0429 15.6181C30.2828 15.7018 30.5227 15.8023 30.7626 15.9196C30.9511 16.0034 31.191 15.9698 31.3452 15.8191L32.8874 14.3116L34.6524 16.0201L33.1102 17.5276C32.956 17.6784 32.9217 17.9129 33.0245 18.1139C33.1445 18.3317 33.2301 18.5662 33.3158 18.8007C33.3844 19.0184 33.59 19.1524 33.8128 19.1524H35.989V21.5645H35.9547Z" fill="#1C3048" stroke="#1C3048" stroke-width="0.2"/>
<path d="M28.4479 16.7578C26.4259 16.7578 24.7637 18.3826 24.7637 20.3424C24.7637 22.319 26.4087 23.927 28.4479 23.927C30.4699 23.927 32.115 22.319 32.115 20.3424C32.115 18.3659 30.4699 16.7578 28.4479 16.7578ZM28.4479 22.9387C26.9913 22.9387 25.809 21.7662 25.809 20.3424C25.809 18.9186 26.9913 17.7628 28.4479 17.7628C29.9044 17.7628 31.1039 18.9186 31.1039 20.3424C31.0868 21.7829 29.9044 22.9387 28.4479 22.9387Z" fill="#1C3048" stroke="#1C3048" stroke-width="0.2"/>
<path d="M12.9747 27.7629C13.0947 27.7294 13.1804 27.6624 13.2489 27.5619L13.8829 26.5402L14.1743 27.6959C14.2257 27.897 14.4142 28.031 14.6026 28.031C14.6369 28.031 14.6712 28.031 14.7055 28.0142L16.7789 27.4949C16.8989 27.4614 16.9845 27.3944 17.0531 27.2939C17.1388 27.1934 17.1559 27.0762 17.1216 26.9589L16.8132 25.8031L17.8756 26.4062C18.0812 26.5402 18.3554 26.4732 18.4754 26.2722L19.572 24.4631C19.692 24.2621 19.6235 23.9774 19.4178 23.8601L18.3725 23.2571L19.5549 22.9556C19.7948 22.9053 19.949 22.6541 19.8805 22.4196L19.3664 20.4095C19.3321 20.2923 19.2465 20.1918 19.1608 20.1248C19.058 20.0745 18.9209 20.041 18.8181 20.0745L17.6186 20.376L18.2526 19.3542C18.3897 19.1365 18.304 18.8685 18.0984 18.7512L16.2648 17.6792C16.162 17.6122 16.0421 17.5954 15.9221 17.6289C15.8022 17.6624 15.6993 17.7294 15.6479 17.83L15.0139 18.8517L14.7226 17.6959C14.6541 17.4614 14.4142 17.3274 14.1743 17.3777L12.1008 17.8802C11.9809 17.9137 11.878 17.9975 11.8266 18.098C11.7581 18.1985 11.741 18.3157 11.7752 18.433L12.0837 19.5887L11.0213 18.969C10.8156 18.8517 10.5414 18.9187 10.4044 19.1365L9.30767 20.9288C9.23912 21.0293 9.23912 21.1465 9.25626 21.2638C9.29053 21.381 9.35907 21.4648 9.46189 21.5318L10.5072 22.1348L9.34194 22.4363C9.10204 22.4866 8.94781 22.7378 9.01636 22.9723L9.54757 24.9991C9.58184 25.1164 9.65038 25.2001 9.7532 25.2671C9.85601 25.3174 9.97596 25.3509 10.0959 25.3174L11.2783 25.0159L10.6443 26.0377C10.5243 26.2554 10.5929 26.5234 10.7985 26.6407L12.632 27.7127C12.7348 27.7629 12.8548 27.7964 12.9747 27.7629ZM12.2036 24.5971C12.1179 24.4966 12.0151 24.3794 11.9295 24.2621C11.8266 24.0946 11.6381 24.0109 11.4496 24.0611L10.3015 24.3459L9.9931 23.1733L11.1412 22.8886C11.3297 22.8383 11.4668 22.6876 11.4839 22.5033C11.4839 22.3526 11.5182 22.2186 11.5525 22.0678C11.5867 21.8836 11.5011 21.6993 11.3468 21.5988L10.3187 20.9958L10.9527 19.9573L11.9637 20.5435C12.1351 20.644 12.3407 20.6273 12.4949 20.4933C12.5978 20.3928 12.7177 20.309 12.8548 20.2253C13.0261 20.1248 13.0947 19.9238 13.0433 19.7395L12.752 18.634L13.9515 18.3325L14.2428 19.4547C14.2942 19.639 14.4484 19.773 14.6541 19.7897C14.8083 19.8065 14.9454 19.8233 15.0996 19.8568C15.2881 19.907 15.4937 19.8233 15.5794 19.6557L16.1791 18.6675L17.2416 19.2872L16.6418 20.2755C16.539 20.4263 16.5561 20.644 16.6932 20.7948C16.796 20.8953 16.8817 21.0125 16.9503 21.1298C17.0531 21.2973 17.2587 21.3643 17.4472 21.3308L18.5953 21.046L18.8866 22.2186L17.7556 22.5033C17.5672 22.5536 17.4301 22.7043 17.4129 22.8886C17.4129 23.0393 17.3787 23.1901 17.3444 23.3241C17.3101 23.5083 17.3958 23.7093 17.5672 23.8099L18.5782 24.3961L17.9441 25.4346L16.916 24.8316C16.7618 24.7479 16.5561 24.7646 16.4019 24.8819C16.282 24.9824 16.162 25.0661 16.0421 25.1499C15.8878 25.2504 15.8022 25.4514 15.8536 25.6356L16.1449 26.7412L14.9454 27.0427L14.6541 25.9204C14.6026 25.7361 14.4313 25.6021 14.2428 25.6021C14.0886 25.5854 13.9515 25.5686 13.7973 25.5351C13.763 25.5351 13.7287 25.5184 13.6944 25.5184C13.5402 25.5184 13.386 25.6021 13.3175 25.7361L12.7006 26.7244L11.6553 26.1214L12.255 25.1164C12.3578 24.9489 12.3236 24.7479 12.2036 24.5971Z" fill="#1C3048" stroke="#1C3048" stroke-width="0.2"/>
<path d="M14.4489 25.0151C14.6374 25.0151 14.843 24.9816 15.0315 24.9481C16.2996 24.6299 17.0707 23.3736 16.7451 22.134C16.4367 20.9113 15.1001 20.1575 13.8663 20.459C12.5982 20.7773 11.8271 22.0335 12.1527 23.2731C12.4097 24.2949 13.3694 25.0151 14.4489 25.0151ZM14.0891 21.2965C14.209 21.263 14.329 21.2463 14.4489 21.2463C15.1172 21.2463 15.717 21.6985 15.8712 22.3351C16.0768 23.1056 15.597 23.8928 14.8088 24.0938C14.0377 24.2781 13.2151 23.8091 13.0266 23.0553C12.821 22.2848 13.3008 21.4975 14.0891 21.2965Z" fill="#1C3048" stroke="#1C3048" stroke-width="0.2"/>
<path d="M26.5459 32.5521H24.5238C24.5238 32.5354 24.5067 32.5186 24.4896 32.4851L25.9119 31.0948C26.0147 30.9943 26.0661 30.8771 26.0661 30.7431C26.0661 30.6091 26.0147 30.4751 25.9119 30.3913L23.7356 28.2305C23.53 28.0295 23.2215 28.0295 23.0159 28.2305L21.5936 29.6208C21.5593 29.6041 21.5422 29.6041 21.5251 29.5873V27.6275C21.5251 27.3428 21.3023 27.125 21.011 27.125H17.8923C17.6181 27.125 17.3782 27.3428 17.3782 27.6275V29.5873C17.3611 29.6041 17.3268 29.6208 17.3096 29.6208L15.8874 28.2305C15.6817 28.0295 15.3562 28.0295 15.1677 28.2305L12.9743 30.3746C12.8715 30.4583 12.8201 30.5923 12.8201 30.7263C12.8201 30.8603 12.8715 30.9943 12.9743 31.0781L14.3966 32.4684C14.3794 32.4851 14.3794 32.5186 14.3623 32.5354H12.3402C12.0661 32.5354 11.8262 32.7699 11.8262 33.0379V36.0697C11.8262 36.3377 12.0489 36.5722 12.3402 36.5722H14.3623C14.3623 36.589 14.3794 36.6057 14.3966 36.6392L12.9743 38.0295C12.8886 38.13 12.8201 38.2473 12.8201 38.3813C12.8201 38.5153 12.8715 38.6493 12.9743 38.733L15.1677 40.8771C15.3733 41.0781 15.6817 41.0781 15.8874 40.8771L17.3096 39.4868C17.3439 39.5036 17.3611 39.5036 17.3782 39.5203V41.4969C17.3782 41.7816 17.601 41.9994 17.8923 41.9994H20.9939C21.268 41.9994 21.5079 41.7649 21.5079 41.4969V39.5203C21.5251 39.5203 21.5593 39.5036 21.5765 39.4868L22.9988 40.8771C23.2044 41.0781 23.5128 41.0781 23.7185 40.8771L25.9119 38.733C26.0147 38.6325 26.0661 38.5153 26.0661 38.3813C26.0661 38.2473 26.0147 38.1133 25.9119 38.0295L24.4896 36.6392C24.4896 36.6057 24.5067 36.589 24.5238 36.5722H26.5459C26.8201 36.5722 27.06 36.3377 27.06 36.0697V33.0379C27.06 32.7699 26.8372 32.5521 26.5459 32.5521ZM26.0318 35.584H24.1811C23.9584 35.584 23.7527 35.718 23.6842 35.9357C23.6156 36.1367 23.53 36.3545 23.4272 36.5387C23.3243 36.723 23.3586 36.9575 23.53 37.125L24.8323 38.4148L23.3757 39.8553L22.0563 38.5823C21.9021 38.4315 21.6622 38.398 21.4565 38.4985C21.268 38.599 21.0624 38.6828 20.8396 38.7498C20.6169 38.7665 20.4798 38.9675 20.4798 39.1853V41.0111H18.4063V39.1853C18.4063 38.9675 18.2693 38.7665 18.0465 38.7163C17.8409 38.6493 17.6181 38.5655 17.4296 38.465C17.224 38.3645 16.9841 38.398 16.8298 38.5488L15.5104 39.8218L14.0367 38.3813L15.3733 37.125C15.5275 36.9742 15.5618 36.7397 15.459 36.5387C15.3562 36.3377 15.2705 36.1367 15.2019 35.9357C15.1334 35.7347 14.9278 35.584 14.705 35.584H12.8543V33.5572H14.7221C14.9449 33.5572 15.1334 33.4232 15.2191 33.2054C15.2876 33.0044 15.3733 32.8034 15.4761 32.6024C15.5789 32.4014 15.5447 32.1669 15.3733 32.0161L14.0538 30.7263L15.5275 29.2858L16.847 30.5756C17.0012 30.7263 17.2582 30.7598 17.4467 30.6593C17.6352 30.5588 17.8409 30.4751 18.0636 30.4081C18.2693 30.3411 18.4235 30.1568 18.4235 29.9223V28.13H20.4798V29.9391C20.4798 30.1568 20.634 30.3578 20.8396 30.4248C21.0624 30.4918 21.268 30.5756 21.4565 30.6761C21.6622 30.7766 21.9021 30.7263 22.0563 30.5923L23.3757 29.3026L24.8323 30.7431L23.53 32.0329C23.3757 32.1836 23.3415 32.4181 23.4443 32.6191C23.5471 32.8201 23.6328 33.0211 23.7013 33.2222C23.7699 33.4232 23.9755 33.5739 24.1983 33.5739H26.0489V35.584H26.0318Z" fill="#1C3048" stroke="#1C3048" stroke-width="0.2"/>
<path d="M19.4518 31.3301C17.6354 31.3301 16.1445 32.7874 16.1445 34.5629C16.1445 36.3552 17.6182 37.7957 19.4518 37.7957C21.2682 37.7957 22.759 36.3552 22.759 34.5629C22.759 32.7874 21.2682 31.3301 19.4518 31.3301ZM19.4518 36.7907C18.1837 36.7907 17.1727 35.8024 17.1727 34.5629C17.1727 33.3234 18.2008 32.3351 19.4518 32.3351C20.7027 32.3351 21.7308 33.3234 21.7308 34.5629C21.7308 35.8024 20.7027 36.7907 19.4518 36.7907Z" fill="#1C3048" stroke="#1C3048" stroke-width="0.2"/>
</g>
<defs>
<linearGradient id="paint0_linear_4554_1248" x1="25.1706" y1="3.80698e-06" x2="-0.829232" y2="0.894398" gradientUnits="userSpaceOnUse">
<stop stop-color="#5961F8"/>
<stop offset="1" stop-color="#15D8C5"/>
<stop offset="1" stop-color="#15D8C5"/>
</linearGradient>
<clipPath id="clip0_4554_1248">
<rect width="28" height="30" fill="white" transform="translate(9 12)"/>
</clipPath>
</defs>
</svg>
