<svg width="41" height="41" viewBox="0 0 41 41" fill="none" xmlns="http://www.w3.org/2000/svg">
<circle opacity="0.5" cx="12.5" cy="12.5" r="12.5" fill="url(#paint0_linear_4554_1239)"/>
<g clip-path="url(#clip0_4554_1239)">
<mask id="mask0_4554_1239" style="mask-type:luminance" maskUnits="userSpaceOnUse" x="9" y="11" width="32" height="30">
<path d="M40.9375 11H9V41H40.9375V11Z" fill="white"/>
</mask>
<g mask="url(#mask0_4554_1239)">
<path d="M40.9538 22.2673C40.8351 21.9133 40.5063 21.6655 40.1232 21.6412L29.7057 20.9867L25.8413 11.5727C25.6994 11.2273 25.3544 11 24.97 11C24.5863 11 24.2413 11.2273 24.0994 11.5727L20.235 20.9867L9.8763 21.6412C9.4938 21.6655 9.16505 21.9127 9.0463 22.2661C8.92755 22.6188 9.04192 23.0073 9.33567 23.2455L17.3094 29.7182L14.7288 39.5394C14.6338 39.9 14.7757 40.2806 15.0863 40.4994C15.3963 40.7182 15.8138 40.7315 16.1382 40.5327L24.9707 35.1194L33.8032 40.5327C34.1282 40.7321 34.545 40.7182 34.855 40.4994C35.1657 40.2806 35.3069 39.9 35.2125 39.5394L32.6325 29.7206L40.6625 23.2479C40.9569 23.0097 41.0726 22.6212 40.9538 22.2673ZM30.9782 28.6897C30.7 28.9139 30.5794 29.2733 30.6688 29.6133L32.8138 37.7758L25.4713 33.2758C25.3182 33.1818 25.1444 33.1352 24.97 33.1352C24.7963 33.1352 24.6225 33.1818 24.4694 33.2758L17.1269 37.7758L19.2719 29.6133C19.3607 29.2745 19.2419 28.9164 18.965 28.6915L12.3338 23.3085L20.9482 22.7642C21.3094 22.7412 21.6244 22.5194 21.7582 22.1933L24.97 14.3673L28.1825 22.1933C28.3163 22.5194 28.6319 22.7418 28.9932 22.7642L37.6538 23.3085L30.9782 28.6897Z" fill="#1C3048"/>
</g>
<path d="M25.8421 21.4067C25.7002 21.0607 25.3545 20.834 24.9708 20.834C24.587 20.834 24.242 21.0613 24.0995 21.4067L22.8427 24.4673L19.4514 24.6807C19.0683 24.7049 18.7389 24.9528 18.6202 25.3067C18.5014 25.6607 18.6177 26.0491 18.9127 26.2873L21.5264 28.3928L20.6877 31.5855C20.5927 31.9461 20.7346 32.3267 21.0446 32.5455C21.3552 32.7643 21.772 32.7776 22.0964 32.5788L24.9695 30.8188L27.8414 32.5788C28.1664 32.7776 28.5827 32.7649 28.8933 32.5461C29.2039 32.3273 29.3452 31.9467 29.2508 31.5861L28.412 28.3934L31.0258 26.2879C31.3208 26.0503 31.437 25.6619 31.3183 25.3079C31.2002 24.954 30.8708 24.7055 30.4877 24.6813L27.097 24.4679L25.8421 21.4067ZM26.7595 27.3613C26.4814 27.5855 26.3608 27.9449 26.4502 28.2849L26.8539 29.8213L25.472 28.974C25.1664 28.7867 24.7764 28.7867 24.4708 28.974L23.0877 29.8213L23.4914 28.2843C23.5808 27.9443 23.4602 27.5849 23.1821 27.3607L21.9233 26.3467L23.5564 26.2443C23.9177 26.2213 24.2327 25.9994 24.3664 25.6734L24.9714 24.2007L25.5764 25.6734C25.7102 25.9994 26.0258 26.2219 26.3871 26.2443L28.0189 26.3467L26.7595 27.3613Z" fill="#1C3048"/>
<path d="M25.9375 40.0907C25.9375 40.5932 25.5181 40.9998 25 40.9998C24.4825 40.9998 24.0625 40.5932 24.0625 40.0907C24.0625 39.5883 24.4819 39.1816 25 39.1816C25.5181 39.1816 25.9375 39.5883 25.9375 40.0907Z" fill="#1C3048"/>
<path d="M37.7723 30.4295C37.2798 30.2744 36.7511 30.5356 36.5911 31.0132C36.4311 31.4907 36.7004 32.0035 37.1929 32.1586C37.6854 32.3138 38.2142 32.0525 38.3742 31.575C38.5348 31.0974 38.2648 30.5847 37.7723 30.4295Z" fill="#1C3048"/>
<path d="M33.2658 16.3318C32.847 16.0367 32.2608 16.127 31.9564 16.533C31.652 16.9391 31.7452 17.5076 32.1639 17.8027C32.5827 18.0979 33.1689 18.0076 33.4733 17.6015C33.7777 17.1955 33.6852 16.627 33.2658 16.3318Z" fill="#1C3048"/>
<path d="M18.0436 16.533C17.7392 16.127 17.153 16.0367 16.7342 16.3318C16.3155 16.627 16.2223 17.1955 16.5267 17.6015C16.8311 18.0076 17.4173 18.0979 17.8361 17.8027C18.2548 17.5076 18.348 16.9391 18.0436 16.533Z" fill="#1C3048"/>
<path d="M13.4094 31.0171C13.2494 30.5395 12.7206 30.2783 12.2281 30.4334C11.7356 30.5886 11.4662 31.1013 11.6262 31.5789C11.7862 32.0565 12.315 32.3177 12.8075 32.1625C13.3 32.008 13.5694 31.4946 13.4094 31.0171Z" fill="#1C3048"/>
</g>
<defs>
<linearGradient id="paint0_linear_4554_1239" x1="25.1706" y1="3.80698e-06" x2="-0.829232" y2="0.894398" gradientUnits="userSpaceOnUse">
<stop stop-color="#5961F8"/>
<stop offset="1" stop-color="#15D8C5"/>
<stop offset="1" stop-color="#15D8C5"/>
</linearGradient>
<clipPath id="clip0_4554_1239">
<rect width="32" height="30" fill="white" transform="translate(9 11)"/>
</clipPath>
</defs>
</svg>
