<svg width="37" height="36" viewBox="0 0 37 36" fill="none" xmlns="http://www.w3.org/2000/svg">
<circle opacity="0.5" cx="12.5" cy="12.5" r="12.5" fill="url(#paint0_linear_4554_1261)"/>
<g clip-path="url(#clip0_4554_1261)">
<path d="M18.5347 33.9788H19.061C19.4532 33.9788 19.7715 33.6572 19.7715 33.2609C19.7715 32.8645 19.4532 32.543 19.061 32.543H18.5347C18.1425 32.543 17.8242 32.8645 17.8242 33.2609C17.8242 33.6572 18.1425 33.9788 18.5347 33.9788Z" fill="#1C3048"/>
<path d="M15.8804 33.9788H16.4067C16.799 33.9788 17.1172 33.6572 17.1172 33.2609C17.1172 32.8645 16.799 32.543 16.4067 32.543H15.8804C15.4882 32.543 15.1699 32.8645 15.1699 33.2609C15.1699 33.6572 15.4882 33.9788 15.8804 33.9788Z" fill="#1C3048"/>
<path d="M35.7521 30.5216H25.9891C25.3007 30.5216 24.7412 31.0877 24.7412 31.7824V32.5422H24.2105V27.1677H31.2891C33.3549 27.1677 35.0357 25.4694 35.0357 23.3823C35.0357 21.6646 33.8833 20.1884 32.3009 19.7375C32.3201 19.5251 32.3298 19.3105 32.3298 19.0974C32.3298 15.1841 29.1775 12 25.3037 12C21.9916 12 19.2109 14.2763 18.4708 17.438C18.2021 17.3588 17.9216 17.3176 17.6345 17.3176C15.9995 17.3176 14.6702 18.6607 14.6702 20.3126V20.338C13.1263 20.6693 11.9643 22.058 11.9643 23.7151C11.9643 25.619 13.4971 27.1677 15.3808 27.1677H22.7895V32.5422H22.2595V31.7824C22.2595 31.0869 21.7 30.5216 21.0117 30.5216H11.2479C10.5595 30.5216 10 31.0877 10 31.7824V34.7385C10 35.4339 10.5595 35.9993 11.2479 35.9993H21.0109C21.6993 35.9993 22.2588 35.4339 22.2588 34.7385V33.9787H24.7405V34.7385C24.7405 35.4339 25.3 35.9993 25.9883 35.9993H35.7514C36.4397 35.9993 36.9993 35.4339 36.9993 34.7385V31.7824C37 31.0877 36.4397 30.5216 35.7521 30.5216ZM20.8377 34.5642H11.4211V31.9574H20.8377V34.5642ZM15.3808 25.7327C14.2802 25.7327 13.3854 24.8278 13.3854 23.7158C13.3854 22.6046 14.2802 21.7005 15.3793 21.7005H15.3808C15.6405 21.7207 15.9003 21.6242 16.0543 21.4126C16.1882 21.2286 16.2275 20.9916 16.1609 20.774C16.115 20.6244 16.092 20.4696 16.092 20.3133C16.092 19.4534 16.7848 18.7534 17.6352 18.7534C17.9808 18.7534 18.3072 18.8663 18.5796 19.081C18.7854 19.2425 19.0607 19.2769 19.299 19.1729C19.5373 19.0682 19.7002 18.8409 19.7238 18.5799C19.9888 15.647 22.3883 13.4358 25.3044 13.4358C28.3945 13.4358 30.9087 15.9761 30.9087 19.0981C30.9087 19.4631 30.8732 19.828 30.8044 20.184C30.7651 20.3859 30.8132 20.5953 30.9376 20.759C31.0612 20.922 31.2484 21.0245 31.452 21.0387C32.665 21.1247 33.6154 22.1544 33.6154 23.3831C33.6154 24.6783 32.5725 25.7327 31.2899 25.7327H15.3808ZM35.5789 34.5642H26.1615V31.9574H35.5789V34.5642Z" fill="#1C3048"/>
<path d="M33.275 33.9788H33.8012C34.1935 33.9788 34.5117 33.6572 34.5117 33.2609C34.5117 32.8645 34.1935 32.543 33.8012 32.543H33.275C32.8827 32.543 32.5645 32.8645 32.5645 33.2609C32.5645 33.6572 32.882 33.9788 33.275 33.9788Z" fill="#1C3048"/>
<path d="M30.6226 33.9788H31.1489C31.5411 33.9788 31.8594 33.6572 31.8594 33.2609C31.8594 32.8645 31.5411 32.543 31.1489 32.543H30.6226C30.2304 32.543 29.9121 32.8645 29.9121 33.2609C29.9121 33.6572 30.2304 33.9788 30.6226 33.9788Z" fill="#1C3048"/>
</g>
<defs>
<linearGradient id="paint0_linear_4554_1261" x1="25.1706" y1="3.80698e-06" x2="-0.829232" y2="0.894398" gradientUnits="userSpaceOnUse">
<stop stop-color="#5961F8"/>
<stop offset="1" stop-color="#15D8C5"/>
<stop offset="1" stop-color="#15D8C5"/>
</linearGradient>
<clipPath id="clip0_4554_1261">
<rect width="27" height="24" fill="white" transform="translate(10 12)"/>
</clipPath>
</defs>
</svg>
