<svg width="31" height="34" viewBox="0 0 31 34" fill="none" xmlns="http://www.w3.org/2000/svg">
<circle opacity="0.5" cx="12.5" cy="12.5" r="12.5" fill="url(#paint0_linear_4554_1291)"/>
<g clip-path="url(#clip0_4554_1291)">
<path d="M28.4535 24.1759C30.0076 22.8103 31 20.7463 31 18.4403C31 14.3374 27.8601 11 24 11C20.1399 11 17 14.3374 17 18.4403C17 20.7463 17.9924 22.8103 19.5465 24.1759V26.5963H17.5917V28.474L24 34L30.4083 28.474V26.5957H28.4535V24.1759ZM18.2679 18.4403C18.2679 15.0807 20.8392 12.3477 24 12.3477C27.1608 12.3477 29.7321 15.0807 29.7321 18.4403C29.7321 21.7998 27.1608 24.5329 24 24.5329C20.8392 24.5329 18.2679 21.7998 18.2679 18.4403ZM29.0108 27.9439L24 32.2648L18.9892 27.9439H20.8144V25.0647C21.7707 25.5864 22.8532 25.8811 24 25.8811C25.1468 25.8811 26.2298 25.5864 27.1856 25.0647V27.9439H29.0108Z" fill="#1C3048"/>
<path d="M23.6379 19.1137H24.3631C24.7412 19.1137 25.0489 19.4407 25.0489 19.8432C25.0489 20.2451 24.7412 20.5721 24.3631 20.5721H23.6249C23.2597 20.5721 22.9622 20.2565 22.9622 19.8678H21.6943C21.6943 20.9064 22.4235 21.7659 23.3663 21.9006V22.8602H24.6342V21.8994C25.5837 21.7581 26.3168 20.8902 26.3168 19.8432C26.3168 18.698 25.44 17.766 24.3631 17.766H23.6379C23.2597 17.766 22.9521 17.439 22.9521 17.0365C22.9521 16.634 23.2597 16.307 23.6379 16.307H24.3462C24.7249 16.307 25.0331 16.6346 25.0331 17.0371H26.301C26.301 15.9955 25.5758 15.1306 24.6342 14.9821V14.0195H23.3663V14.9803C22.4167 15.1216 21.6836 15.9895 21.6836 17.0365C21.6836 18.1817 22.5599 19.1137 23.6379 19.1137Z" fill="#1C3048"/>
</g>
<defs>
<linearGradient id="paint0_linear_4554_1291" x1="25.1706" y1="3.80698e-06" x2="-0.829232" y2="0.894398" gradientUnits="userSpaceOnUse">
<stop stop-color="#5961F8"/>
<stop offset="1" stop-color="#15D8C5"/>
<stop offset="1" stop-color="#15D8C5"/>
</linearGradient>
<clipPath id="clip0_4554_1291">
<rect width="14" height="23" fill="white" transform="translate(17 11)"/>
</clipPath>
</defs>
</svg>
