<svg width="44" height="40" viewBox="0 0 44 40" fill="none" xmlns="http://www.w3.org/2000/svg">
<circle opacity="0.5" cx="12.5" cy="12.5" r="12.5" fill="url(#paint0_linear_4554_1277)"/>
<g clip-path="url(#clip0_4554_1277)">
<path d="M24.9991 40.0009C18.3343 40.0009 12.4523 35.3179 11.0347 28.7231C10.8655 27.6061 10.7174 26.4675 10.7174 25.5009C10.7174 24.8564 10.7174 24.0401 10.8655 23.3957L8.49577 25.1786C7.86103 25.6512 6.7608 25.5009 6.27417 24.8564C5.80869 24.212 5.95679 23.0949 6.59154 22.6009L12.939 17.7675C13.2563 17.4453 13.743 17.4453 14.2085 17.4453C14.6951 17.4453 15.0125 17.7675 15.3298 18.0898L19.3076 23.7179C19.7731 24.3623 19.6249 25.4794 18.9902 25.9735C18.3343 26.4675 17.2129 26.3172 16.7474 25.6512L14.5258 22.429C14.0392 23.3957 13.8911 24.5342 13.8911 25.5009C13.8911 26.3172 14.0392 27.112 14.2085 27.9068C15.3298 33.2342 19.7519 36.7786 24.9991 36.7786C27.0726 36.7786 28.9768 36.2846 30.7118 35.1675C31.5158 34.6735 32.4468 35.0172 32.9334 35.6616C33.42 36.4779 33.0815 37.4231 32.4468 37.9172C30.0771 39.3564 27.5381 40.0009 24.9991 40.0009Z" fill="#1C3048"/>
<path d="M36.1064 33.5556C35.6197 33.5556 35.1543 33.2333 34.8369 32.9111L30.8592 27.283C30.3937 26.6385 30.5418 25.5215 31.1765 25.0274C31.8113 24.5548 32.9115 24.7052 33.3981 25.3496L35.6197 28.5719C35.9371 27.6052 36.1064 26.4667 36.1064 25.5C36.1064 24.6837 35.9583 23.8889 35.789 23.0941C34.6676 17.7667 30.2456 14.2222 24.9984 14.2222C22.9249 14.2222 21.0418 14.7163 19.2857 15.8333C18.5028 16.3274 17.5507 15.9837 17.0641 15.3393C16.5774 14.7163 16.916 13.5778 17.6988 13.1052C19.9204 11.6444 22.4594 11 24.9984 11C31.6632 11 37.5451 15.683 38.9627 22.2778C39.1108 23.3948 39.2801 24.383 39.2801 25.5C39.2801 26.1444 39.2801 26.9607 39.132 27.6052L41.5017 25.8222C42.1364 25.3496 43.2367 25.5 43.7233 26.1444C44.1888 26.7889 44.0407 27.9059 43.4059 28.4L37.0585 33.2333C36.7411 33.4052 36.4237 33.5556 36.1064 33.5556Z" fill="#6B829D"/>
</g>
<defs>
<linearGradient id="paint0_linear_4554_1277" x1="25.1706" y1="3.80698e-06" x2="-0.829232" y2="0.894398" gradientUnits="userSpaceOnUse">
<stop stop-color="#5961F8"/>
<stop offset="1" stop-color="#15D8C5"/>
<stop offset="1" stop-color="#15D8C5"/>
</linearGradient>
<clipPath id="clip0_4554_1277">
<rect width="38" height="29" fill="white" transform="translate(6 11)"/>
</clipPath>
</defs>
</svg>
