<svg width="45" height="38" viewBox="0 0 45 38" fill="none" xmlns="http://www.w3.org/2000/svg">
<circle opacity="0.5" cx="12.5" cy="12.5" r="12.5" fill="url(#paint0_linear_4554_1228)"/>
<g clip-path="url(#clip0_4554_1228)">
<mask id="mask0_4554_1228" style="mask-type:luminance" maskUnits="userSpaceOnUse" x="8" y="11" width="37" height="27">
<path d="M45 11H8V38H45V11Z" fill="white"/>
</mask>
<g mask="url(#mask0_4554_1228)">
<path d="M44.9618 30.0229C44.3514 26.5653 42.0677 23.7882 39.057 22.5007C40.3929 21.3749 41.2466 19.669 41.2466 17.7645C41.2466 14.3811 38.556 11.6287 35.2484 11.6287C31.9408 11.6287 29.2502 14.3811 29.2502 17.7645C29.2502 19.6705 30.1046 21.3764 31.442 22.5029C30.9431 22.7169 30.4594 22.9723 29.9974 23.27C28.8339 24.0203 27.8397 25.0079 27.0744 26.1658C26.2945 25.6454 25.4568 25.2124 24.5734 24.8798C26.4727 23.5 27.7144 21.2315 27.7144 18.6713C27.7144 14.4757 24.3801 11.0625 20.2819 11.0625C16.1836 11.0625 12.8493 14.4757 12.8493 18.6713C12.8493 21.2315 14.0911 23.5 15.9903 24.8798C11.9478 26.3986 8.8488 30.0127 8.04435 34.5627C7.89592 35.404 8.124 36.262 8.66923 36.917C9.21011 37.5654 9.99862 37.9373 10.8335 37.9373H29.7281C30.5629 37.9373 31.3515 37.5654 31.8923 36.917C32.4383 36.262 32.6656 35.404 32.5172 34.5627C32.418 34.0016 32.2841 33.4543 32.1175 32.9245H42.5608C43.2798 32.9245 43.9582 32.6043 44.4238 32.0468C44.8937 31.4835 45.0892 30.7463 44.9618 30.0229ZM31.4181 17.7645C31.4181 15.5826 33.1363 13.8076 35.2484 13.8076C37.3605 13.8076 39.0787 15.5826 39.0787 17.7645C39.0787 19.9463 37.3605 21.7213 35.2484 21.7213C33.1363 21.7213 31.4181 19.9463 31.4181 17.7645ZM15.0164 18.6705C15.0164 15.6765 17.3783 13.2407 20.2811 13.2407C23.1839 13.2407 25.5459 15.6765 25.5459 18.6705C25.5459 21.6645 23.1839 24.1004 20.2811 24.1004C17.3783 24.1004 15.0164 21.6645 15.0164 18.6705ZM30.2306 35.5168C30.1553 35.607 29.9909 35.7577 29.7281 35.7577H10.8335C10.5706 35.7577 10.4063 35.607 10.331 35.5168C10.2528 35.4229 10.129 35.2242 10.1789 34.9433C11.0659 29.9232 15.314 26.2793 20.2811 26.2793C25.2475 26.2793 29.4964 29.9232 30.3834 34.9433C30.4326 35.2242 30.3095 35.4236 30.2306 35.5168ZM42.7635 30.6466C42.7324 30.683 42.6658 30.7448 42.5622 30.7448H31.2066C30.5651 29.5368 29.7418 28.4538 28.7752 27.5289C30.1872 25.2713 32.6005 23.8995 35.2484 23.8995C38.9745 23.8995 42.1618 26.6344 42.8272 30.4035C42.8482 30.5229 42.7961 30.6073 42.7635 30.6466Z" fill="#1C3048"/>
</g>
</g>
<defs>
<linearGradient id="paint0_linear_4554_1228" x1="25.1706" y1="3.80698e-06" x2="-0.829232" y2="0.894398" gradientUnits="userSpaceOnUse">
<stop stop-color="#5961F8"/>
<stop offset="1" stop-color="#15D8C5"/>
<stop offset="1" stop-color="#15D8C5"/>
</linearGradient>
<clipPath id="clip0_4554_1228">
<rect width="37" height="27" fill="white" transform="translate(8 11)"/>
</clipPath>
</defs>
</svg>
