<svg width="25" height="19" viewBox="0 0 25 19" fill="none" xmlns="http://www.w3.org/2000/svg">
<g clip-path="url(#clip0_4563_1559)">
<path d="M16.3481 8.37737L10.8251 5.34514C10.5077 5.17059 10.1323 5.17733 9.82104 5.36229C9.50977 5.54725 9.32422 5.87491 9.32422 6.23809V12.2511C9.32422 12.6125 9.50854 12.9395 9.81799 13.1245C9.97913 13.2212 10.1586 13.2696 10.338 13.2696C10.5022 13.2696 10.6676 13.2292 10.819 13.1471L16.342 10.1669C16.6698 9.98995 16.8749 9.64759 16.8761 9.274C16.8773 8.9004 16.6747 8.55682 16.3481 8.37737ZM10.7885 11.4947V7.00059L14.9163 9.26665L10.7885 11.4947Z" fill="white"/>
<path d="M24.8163 4.48435L24.8151 4.47271C24.7937 4.27061 24.5831 2.47491 23.7128 1.56113C22.7069 0.486897 21.5668 0.356445 21.0187 0.293975C20.9735 0.289076 20.932 0.284176 20.8948 0.279277L20.8508 0.274989C17.5458 0.0330722 12.5543 0 12.5043 0H12.4957C12.4457 0 7.45483 0.0330722 4.11926 0.274377L4.07532 0.278664C4.03992 0.283564 4.00085 0.287851 3.95813 0.292751C3.41614 0.355833 2.28821 0.486284 1.2793 1.59972C0.45105 2.50369 0.211182 4.26142 0.186768 4.45863L0.183716 4.48435C0.176392 4.56826 0 6.56851 0 8.57673V10.4539C0 12.4621 0.176392 14.4624 0.183716 14.5463L0.184937 14.5591C0.206299 14.7576 0.41687 16.5208 1.28296 17.4346C2.22839 18.4727 3.42407 18.6105 4.06738 18.6846C4.1687 18.6962 4.25659 18.706 4.31641 18.7164L4.37378 18.7244C6.28235 18.9063 12.265 18.9963 12.5189 19H12.5342C12.5842 19 17.5751 18.9669 20.8807 18.7256L20.9241 18.7213C20.9656 18.7158 21.0126 18.7109 21.0645 18.7054C21.6034 18.6478 22.7252 18.5284 23.7201 17.4303C24.5489 16.5263 24.7888 14.7686 24.8132 14.5714L24.8163 14.5457C24.8236 14.4618 25.0006 12.4615 25.0006 10.4533V8.57612C25 6.56851 24.8236 4.56826 24.8163 4.48435ZM23.5352 10.4539C23.5352 12.3127 23.3734 14.2266 23.3582 14.4023C23.2959 14.8868 23.0432 15.9984 22.6398 16.4387C22.0172 17.1259 21.3776 17.1945 20.9106 17.2435C20.8539 17.2496 20.802 17.2551 20.755 17.2613C17.558 17.4934 12.7551 17.5289 12.5342 17.5301C12.2858 17.5264 6.39038 17.4358 4.5404 17.2637C4.44519 17.2484 4.34326 17.2361 4.23523 17.2245C3.68774 17.1614 2.93823 17.0757 2.36206 16.4394L2.34863 16.4247C1.9519 16.01 1.70654 14.9701 1.64429 14.4085C1.63269 14.2756 1.46667 12.339 1.46667 10.4545V8.57735C1.46667 6.72101 1.62781 4.80895 1.64368 4.6295C1.71814 4.05931 1.9751 3.01509 2.36267 2.5925C3.00232 1.88389 3.67859 1.8055 4.12598 1.75344C4.1687 1.74854 4.20898 1.74364 4.24561 1.73935C7.48901 1.50662 12.3267 1.47171 12.5 1.47049C12.6733 1.47171 17.5092 1.50662 20.7239 1.73935C20.7629 1.74425 20.8063 1.74915 20.8527 1.75467C21.3129 1.80734 22.0087 1.88695 22.6471 2.57045L22.6532 2.57657C23.0499 2.9912 23.2953 4.04951 23.3575 4.62215C23.3685 4.7477 23.5352 6.68855 23.5352 8.57673V10.4539Z" fill="white"/>
</g>
<defs>
<clipPath id="clip0_4563_1559">
<rect width="25" height="19" fill="white"/>
</clipPath>
</defs>
</svg>
